<mxfile host="app.diagrams.net" agent="Mozilla/5.0 (Windows NT 10.0; Win64; x64) AppleWebKit/537.36 (KHTML, like Gecko) Chrome/138.0.0.0 Safari/537.36 Edg/138.0.0.0" version="27.1.6">
  <diagram name="Page-1" id="J0cIRbxJd0kftnbgLF3c">
    <mxGraphModel dx="941" dy="537" grid="0" gridSize="10" guides="1" tooltips="1" connect="1" arrows="1" fold="1" page="1" pageScale="1" pageWidth="850" pageHeight="1100" math="0" shadow="0">
      <root>
        <mxCell id="0" />
        <mxCell id="1" parent="0" />
        <mxCell id="Z7ct0C7aWbF0iMJiXNYh-62" value="" style="ellipse;whiteSpace=wrap;html=1;aspect=fixed;" vertex="1" parent="1">
          <mxGeometry x="346" y="122" width="112" height="112" as="geometry" />
        </mxCell>
        <mxCell id="Z7ct0C7aWbF0iMJiXNYh-1" value="" style="shape=image;verticalLabelPosition=bottom;labelBackgroundColor=default;verticalAlign=top;aspect=fixed;imageAspect=0;image=data:image/png,iVBORw0KGgoAAAANSUhEUgAAAeMAAAHtCAYAAAAqfRZIAAAAAXNSR0IArs4c6QAAAARnQU1BAACxjwv8YQUAAAAJcEhZcwAADsMAAA7DAcdvqGQAAMTXSURBVHhe7N11eBRXFwfg32azcfcQiBIlwR0KhVK8xYsWaNFCsSIFihdrsULRAsULxbW4S3BKDJJA3N0263u+P7qZL7OBFgmQZO/7PPuUmXtmkibZPXNdQEQEhmE+GJVKhcTERAiFQjg5OWHPnj1ISkrC8OHDQUS4e/cuAgMD4enpiczMDBABtra2EAgEKC4uhqGhIQwMDJCXlwepVApbW1sUFhbiwYMHqFatGmrVqoVt27YhKSkJ33zzDQAgOTkZnp6eMDc31/52GIb5AAQsGTPMhyGXywEAGRkZWLp0KZo1a4Z+/fohOTkZQqEQDg4OEIlE2pe9kdzcXBQVFaFatWoICQnBtm3b0KtXL7Ro0QIFBQWwtLSEUCjUvoxhmPeEJWOG+QAePXqEQ4cO4fPPP0dQUBCSkpLg4uICExMT7dByp1KpkJOTAwMDA6hUKqxatQq+vr7o27dvuSV/hmFeD0vGDPOexMXFITw8HE2bNkVGRgbi4uLQuHFj2Nraaoe+NyqVCmFhoVAolAgKCsKVK1dgbGyM5s2bQ19fXzucYZh3RE/7BMMw5UulUgEA7t+/j/DwcBAR/P390alTpw+aiAFAKBSiTp26aNiwIZd8nz17huLiYkilUu57Zxjm3WI1Y4Z5h+7evYvbt2+jf//+MDMzg56eHgwNDbXDKhSFQgE9PT1s374dEokEQ4YMYQO9GOYdYzVjhilnRISioiIolUqkpKTAwcEBZmZmMDY2rvCJGABEIhGEQiFatGgBKysrSCQSZGZmori4WDuUYZhywmrGDFPOrly5gnv37mHo0KGwsbGp9KOUiQibN29Gfn4+Ro0aBQsLC+0QhmHeEqsZM0w5ISIQEeRyOYJqB1WZ6UICgQDt27eHn58flEolZDIZ2DM8w5QvVjNmmHKQnJyM06dP49NPP4Wbm5t2cZVRWFiITZs2ISAgAJ07d9YuZhjmDbGaMcOUg2fPnkEmk8HS0lK7qEoxMTFBQEAAcnJyuEVLGIZ5e6xmzDBv4cGDBwCAWrVqQSAQVIoBWm+LiKBSqRATE4OQkBB06tQJpqam2mEMw7wGVjNmmDeUkpKMTZs2ISUlBUZGRjqRiKHpQ9bX14eBgQGuXr2Ky5cva4cwDPOaWM2YYd5AYWEhZDIZUlNT4evrCwMDA+0QnZCZmQloassmJiYwMzPTDmEY5hWwmjHDvKYHDx5g1apVkMlkCAoK0tlEDAD29vawt7fHX3/9hd27d7N+ZIZ5QywZM8xrSktLg4eHB+zt7bWLdFarVq1QrVo1KJVK7SKGYV4Ba6ZmmFeUkZEBsVgMFxcXiEQiCAQC7RCdl5CYgOTkZDRs0JDtAMUwr4HVjBnmFSgUCuzfvx+XLl2Cvr4+S8QvkZeXhwP7DyAmJka7iGGYf8FqxgzzClQqFR4+fAgnJyfUqFFDu5jRUKlUeP78OWxtbT/4jlQMU5mwZMww/+Hx48cAgDp16mgXMS+RmJiIW7duoUuXLmyENcO8AtZMzTD/oqCgAH/88Qdrdn0DwcHBeP78ufZphmFegNWMGeZfKBQKPHnyBJ6enqyG95pSU1NhamoKc3Nz1sfOMP+BJWOGeYmnT59CLBajQYMGvPN5eXkoLi6GiYkJrKyseGUlpFIplEoll4SICCKR6KWrdKnVauTm5sLY2BgmJibaxeVKLBYDwL8uYZmXlweJRAIjIyNYWlpCT69sI5pKpUJBQQHkCjnMzc1hYlz2+05MTMTVq1fRpUsXWFtbaxczDKPBkjHDvIBMJsPKlSvh6emJvn37ApokdvToURw6dAhZWVmws7NDr1690Lt3b16SLSgowK+//oonT55wWyjK5XK0a9cOw4YN4+JKu3TpElavXo1Ro0a9092QCgoKsHjxYgQEBGDw4MHaxRCLxTh8+DCOHj2KzMxM2NjYoEWLFvj66695A7KSk1Pw++9b8ejRQxSJxXCr4YYv+n6Btm3b8raNTElJwZYtW9C9e3fUrl2bO88wDF/Zx12GYSASifD555+jffv23LmTJ09i9uzZMDExwaBBgwAA48aNw9WrV0td+c8SkcePH0dubi7s7O1gY2MDGxubl9ZEnz9/jjlz5uDkyZPIycnRLi4XeXl5CA4OxpIlS7B27dqX9oGfPXsWs2bNAkDo06cPHBwc8PPPP2P16tVQqVSApta/bNnP+P3331Gzpjc6deyEJ0+fYPr06YiKiuLdz9nZGWPGjIGHhwfvPMMwWohhGJ7k5GS6desWqdVq7lxBQQF169aNPvvsM8rLyyMiooiICOrZsyft3Lmz1NVEt27dolatWnH3UKvVpFQpSaVS8eKIiMRiMY0aNYpsbW3J0dGRdu/erR1SLo4dO0Y+Pj5kYmJCenp69OOPP2qHkFwup+HDh1PTpk0pJiaGiIiysrKoZ8+e5O/vT8nJyUREFBYWRjVr1qTZs2eTTCYjIqK//vqLXF1d6eDBg7x7lggODqbjx4+/8GfAMAwRqxkzTClEhFOnTuHmzZtQq9Xc+ZSUFERFRaFly5aIiYnBqVOnkJubi19++QW9evXi3SM9PR35+fmIi4vDsWPHcPr0aSQlJpXpd1Uqldi5cyfu3r2LH374AW5ubryvWZ6aNG2CnTt3Ytu2bXBzc+NquaWpVCq4ubmhf//+3FxqMzMzmJmZQSaTcUtdmpiYYMCAAejRowdEIhHEYjFSU1NhYGDw0kFuAoEAp0+fRkZGhnYRwzBgNWOGKSMkJITi4+N5565fv07Vq1enFi1aUMuWLalFixYUEBBA48aNo4yMDF7spk2bSCQSUVBQELVp04b8/f3pk08+oWvXrvHigoODqWnTprR27VoKCQmhhg0b0o4dO3gx5S02NpYCAwNp7ty52kWkVqupoKCAxGIxEREpFAratWsXVa9enYYNG8bVgksoFArat28fDRw4kNzc3Kh79+6UmZnJiykhl8spKiqKJBKJdhHDMKxmzDD/p1Kp8PTpE7i4uMDV1ZVXJhaLkZ+fD6lUiu+//x4bNmzAF198gd9//x3btm3jxVpYWKB79+6YN28eNm/ejKVLlyIhIQGzZ8/maoZZWVlYvnw5atWqhWHDhnHrOJce/PQuvKhGXEIgEPwzKtrEBKGhoZgwYQJmzJiBZs2aYdasWWV2pyIiqEnNjRSPiopCeHg4L6aESCSCt7c37t2799L+aobRZSwZM4xGWloaNmzYiPj4eO0i6OnpwdDQEP3790fXrl0RFBSEkSNHIjAwEFevXuU1L/ft2xf79u1Dz5494eXlhc8//xyDBg1CWFgYd+8zZ87g3LlzMDAwwL59+7B7926kpaXh/PnzOHbs2AfbilAul+PAgQPo378/zpw5g4kTJ2LDhg1wd3fnYsRiMdLS0gAA/fv1x549e7Bjxw4UFRVh9+7dL21qV6vVuH37Ni5dugQ2iYNh+FgyZhgNQ0NDdOrUCT4+PtpFsLe3h7m5OW8nopJ5w/r6+tw5mUyGkydPlhlhraenB5FIBH39f643NTVFy5YtkZycjGPHjuHmzZvIz8/Hw4cPce3atX+twb5LZ86cwZw5c9CsWTOcOnUKkydPLrPG9OXLlzF8+HA8evSIO1erVi24uLggLy/vpclYT08PAwYMQOvWrdkiIAyjhSVjhtHU9hQKBdq3b//CKUiurq7w9fXFoUOH8PjxY+Tm5uLEiROIiIhAu3bteIOzjh49ismTJ3MJNjg4GPv370dgYCDc3d0AAB07dsSuXbuwdetWbNmyBfPnz4enpydGjBiBOXPmwMjIqNRXL19E9MKaqVgsxo4dOyASidCjRw9IpVI8ePAA9+7dQ1hYGGQyGQDA2toajx8/xvbt25GQkIDs7GwcP34ccXFxqF+/Pu/hRJuLiwtMTEwQGxurXcQwOo0lY4bRzK/dtGnTC5MUNAlowoQJKCgoQL9+/dC7d2/Mnz8fHTt2RL/+/bg4Q0NDDBo0CDKZDF999RX69OmDr776Cnp6epg1axa3CpWxsTFsbW1hZ2fH/dfMzAy2trawtLR8pzXHf2roZRNmbm4unjx5gri4OIwdOxY9evRAr1690KtXL0yYMIHr727UqBGGDBmCAwcOoHfv3vjiiy8wffp0NGzYEAMGDNC+bRnh4eFYv349iouLtYsYRmexFbgYBsD+/fthZmb2n6tfPX78GBcuXEB+fj58fX3RsWPHMs24ABASEoJLly4hOzsbTk5OaNu2Lfz9/bXDOPn5+bhz5w68vb3f6QIZRUVFuHr1KlxdXREUFMQrKygowMWLF1FUVMR7KFGr1bC2tkbbtm1hbm4OACguLsbp06cRFhYGhUKBmjVrokOHDnB2di51xxdLT0/H+fPn0aNHjxe2QjCMLmLJmNF5KpWKW4f5RTXGFyGiV6q9vmpcZUVEUKvVrzUKnIigUCggkUhgbm5eZv41w+gilowZnUZEOHv2LEQiET755BPt4hdKy8jEo78fIjslCcaW1qhdpx68Pfm1WZWaEBEViadhIZAVFcLR1QNNGjeGhdaiGHKlEnEJCUjPzISVpSU83dxgamzMi3kXCMB/PSK8SsybSklJwapVqzBu3Lgy08gYRhexZMzoNLlcjl9//RU1a9ZEt27dtIvLeHD/Ho4uXgSTK1dhnZ+HImNjZDesjzbfz0Cbdh0gEumjWCrFkd07Ebr2VzhHRkJfrkCWrT30e3dHr4lT4KcZrZ2UlIwT27ci+eBBGGZmQ2phBvNP2qLrmHEIDAjQ/tJvraCoCHeuX0PMvXuQFhbAxtMTDdq0RYAfv/k8LiEedy6cQ9qTSAgNDeBevz6atW0H21I7VKnUakQ/j0ZMxBOI8/Pg6OqGWnXqwvYVd2YqKirCunXr0LFjR9SpU0e7mGF0DkvGjM7LyMiAsbEx1x/6Mk8jI7F//Fi0PHcRDQGIAKgBRAI4WSsAn27ahKYtWuKvQwcQOuYb9MjIRg3NKMliAFcEQOSXA/D1ql9hJBJh3YRxqLZnFz6Wq2EGQArgbwDXWzfHkI1bEeDnp/0tvLGMjAzsW74M8h3bEJiRDQMASfoCxNavjxY/LkTbTztATyDAg/v3cGr2LLhevoQaMiWUACItTVHQsyf6z54PLw8PyBQKHN2zC09Xr4bL82cwU8iRZmEBSYdO+Gz6DAQG1NL+8i8kFoshEunDwODF20oyjC4Rzps3b572SYbRFbGxsZBKpf858IgAXDiwH9abt6CdUgmBJhEDgAMAWWYmIuzt4N2sGU4vXoR2dx/AWxOj0iRuVwBPk5KAFs0RHR2NvAXz0U+qgCUAIQBjAF4A5AmJuG9tgXotW0H/Nfpi/83RndshXbQIA/IK4AugBoAANWCXnIrz8TFwbNESQgMD7Jo6FU1OnEQnlRquANwABMoUyA0JwW2RPuq2/Ainz/yFsMkT0D86Fs3kCvgr1QgUSyAOCcWptEQEfdIOZib/PTCrsLAQt27dgr29/TudysUwlQEbOcHotKNHj+LGjRvap8uQK5XIehoBJ4kUAk1yhua/pEm0RVFPkZySDFXUU9TQJOGSODUAAwDV8wqQGPYED65eRSOxFMal4tSaVyABRQ8eISs3t9R38OakSiWeHTuKVsUSWABQal4qAD4AfB6G4Om9e3jw8CEEF86jhea6kjgDAK3UgPriedwPDcGjHTvQOSULJWtylTxstAdgf/ovXD5/ptRXfzmpVIrr168jNTVVu4hhdA5LxozOIiLUr18fTZs21S4qQyAQQGRkDNULRjSV1JKfxcbj1zVrERkTx50vjQAo9YUwNDGGWi6FqFSyLk0IQKhSldsqXAUFBaCUNNiWqs2XEACwkcshzshAZkoibIsLoa/1fakBGAGgmHhs3bgR4gcP4K5JwiUIgD4AP4kKyeFPSpW8nIODA/r37/+frRIMowtYMmZ0llwuR8OGDeH3Cn2zIqEQjnXrItrCAkpNwhSU+u9jAH+FP8GWDRtws0CMJ4J/kpOeplwEQALgb2NjmLlUg1+jJniiL4C61JtQoEloCQDI2xM2lv8fMPU2TExMQFYWKHrJG75IpA99UzPEJ6cgTVH2IaLkYSMqPx9/7N6DZ4nJZWJK4qQAhEav1gcsEong5ubGFv9gmJe8NxlGJ1y4cAFr16596VrKpQkAtGzfEXl9e+OUoQiFmpqhDMAVAGsBpCoUIJUKMQCWEvBQk5wUALIBbAOwIb8AW7dth4efP+I//RR3BP/cR6ipXUYBOOpRA20GDoG5SflMcTIzMoJL+w64p68PheZr6WkSfzaACLfquBcdhV9/XYdzmgFpJQ8Sepr4hwAuEKBSKHCfCPdLPWiUPJTkA/jb3hoBTf67paFEREQE1q9fj6KiIu0ihtEpbAAXo7Pu378PtVqNJk2aaBe9kImxMZTmFlh+6xYuZmUjAsAhwT+JuHTDrEgkgnFQEAqDAhFvJMQ9CLFGUowdAAoBRD59iuysLHzU5wuECQlx2TlIB/DIzAxXG9ZD01lz8Mmn7aFXjouFWNdwxY2kBKQ/i4KRiiAGEAPgmLM9rlRzwdUbt5CalIR0AKkAHDVJNhfAPaEeNtna4J5ECgAoApCu6W8umTWdDWAvgLy+fTH4m7EwKLWhxn/JyMiAt7c3TExMtIsYRmewqU2MziooKOD28P03CoUCoaGhOHHiBC5evIg79+9DLpFoh8HU1BSNGzfGZ599hg4dO8LK1hZZWZlIjIvH6nXrcP6vv3jxnbt0wahvvoGJgQjZqSkwtbSGf5068Cq1XeGLFBYW4tGjR3j+/Dmsra3RuHFjVKtWTTusjJiEeFza9wfy7j+EQCaFysERD/Jyce7yVeRlZ3NxtnZ2GNq6NZwUMkCkD/PadeHcoCHuBgfj1KlTiIgIh1yugC+A+gAsNYn9DgDXenUxoG8/dOzQAQEBAWX2QNZWshqXvr4+W4mL0W3EMDqooCCfLl++RPn5+dpFHKVSSTdv3qSxY8eSt7c36evrlwye5r2MjIyoa9eu9Mcff1BycjKpVCrtW1FkZCR9/vnnvOsEAgF98sknFB4RoR3+UhKJhObPn0+urq7k7+9Pbm5u9Nlnn9GzZ8+0Q19IrlRSTkE+JaWl0sIlS8nOzp73PVlaWtKyZcsoPSuL0rOyKCMnm6Ry+T/XyuUUGRlJa9eupZYtW5LgJT8PkUhEvr6+NGbMGLpz5w7JZDLtb4Pn+PHjdP78ee3TDKNTWDJmdFJERAR9++23lJqaRmKJhJ5EhNPNK5fp4b279Dwmhs5fuEBfffUVOTs7l0k2JYnUycmJ+vTpQydPnqTc3FztL1FGXFwc9evXj/T09Hj3atmyJd29e1c7/IUuXrxI1apVo2+//ZYiIiJo9+7d5OrqSjNmzCC1Wq0d/kIymYzWrV9PNjY2vO/DxsaGVq5c+Z/Jk4goIyODdu/eTZ06dyZbW9syP5+Sl6OjIw0YMIBOnz5NmZmZ2rchIqLVq1fTwoULtU8zjE5hzdRMlZOeno7IyEhIJBJUq1YNfn5+EGn1Yaanp+Pp06dwcq6GM5vWoejYcZikZ0BlaoJYB0ccSk1DelYW7xoAEAqF8PX1Rbt27dCtezc0adzktXYeiouLw+zZs7F3717e1KWGDRti6dKl/7o+NhFh2rRpOHXqFA4ePIiAgADI5XKMHj0aDx48wF9//QUXFxfty3iKi4uxdu1a/Pzzz8gu1TRdrVo1zJ07F1999VWZn9W/yc/Px82bN3Hq1ClcvHgRUVFRL9yG0traGk2bNkX37t3RqlUrWFhbIzMnBwIACpkM5qam8PH25uJTUlKQmZnJuwc0U8zs7e3ZdCimymHJmKlS7t+/jx9//BHR0dHQ09ODUCjEgAEDMGbMGF7fsFqtRmZWFrbMmwW3zb+jrVIFU83I51gAiwAcK3VfgUCAevXqoVevXujUqRN8fX3feMBRQkICFi5ciC1btvASV/369bFs2TK0bduWF19CqVSiQ4cOsLKywubNm2FjYwMAWLx4MdatW4cTJ06gfv362pdxioqKsHz5cqxYsYI3etnVtQbmzZuHQYO+fK1EXFpxcTHCw8Nx7tw5HD58GI8fP37hPGlTMzP4+/qimZU53LLzALUaBf4+aPTlELRv3wEGIhHUajVWr16N7du3c9cJBAKo1WqoVCqMGDECEydO5N2XYSo97aoyw1RWhYWFNGjQIHJ1daVDhw7R7du3aeDAgWRhYUGnTp3ixf51+jSNGPY1LTAxolyAxAAVAlQEkBygYIA8ATIxM6MWzZvT2rVrKTEpkXePt5Gbm0vffPMNGRoa8pp1/fz86PTp0y9sci4sLKT69evTsGHDSCwWc+fXrVtHDg4OdPnyZV58adnZ2TR9+vQyX69atWr0xx9/kFKp1L7kjSUnJ9OGDRuoVatWZG5uzvt6QoD6AvQAoEzN6y5AE20t6eC+vaRUqUitVlNwcDBt2LCB92rTpg1ZWFjQ/gP7tb8kw1R6LBkzVUZiYiI1adKEhg8fzp27fPkymZqa0saNG7lzarWaduzaRR2bNKFDAEkBKij1EgOUBtAoeztavHIFJSaWXxIuLTU1lcaNG1cmQXp7e9OxY8fKJEixWEwNGzakESNGkLj4/8l47dq15OzsTDduXOfFl8jNzaWpU6eSqakp7+v4+vrSn3/++cIBZ+UhJSWF9uzZQ3379qVq1aoRBAJqAlAIQBLNw0+h5t/hAM37tC09i4vTvg0REYWGhtJHH31Es2bNIrlmQBnDVCVsLgFTZVhYWCAgIAAPHz7EkSNHcPfuXezduxd2dnbw9fXl4gQCAbp364ZP2n0CGe8O/yjJVtVdXdGnTx9Ur15dO6RcODk5Ye7cuZg4cSKMS+1hHB0djSlTpmDfvn28BUmMjIxgb2+PrKwsSDVzfgEgKysLRkZGsLW1486VSE5OxowZM7BmzRqIxWLufGBgIFatWoUvvvjinU0pcnZ2xoABA7Bp0yb88ccf+PLLL9FaXx+umjWvS37OCgAuABwjIxHzLEr7NigoKMCKFStgYGCACRMmvHFTOsNUZO/mXcgwH4CFhQUGDhyIjIwMDB06FD179sRvv/2Gjz76CI0bN+bilEolkhITYetVE+HGxpBoVpwSlFqZKhKA2MsDjnb2vK9R3mxtbfHDDz9g2rRpvD7o6OhofP/99zhw4AB3Tk9PD02bNsWjR48QHx8PaLYhDA0NhY+PT5m5xhkZGfjhhx+wdetWyGT/f+zw8fHB8uXL0bFjR178u2JpaYnWrVtj2PBhcDI2BmkHaH72BnIZ5NKy87eDg4Nx+fJlfPXVV7CzK/vAwTBVAVuBi6ky0tLSsGTJEmRmZmLs2LHo2rUrRCIRbt26BVdXV9SqVQsCgQASiQRr166DX61aKLA0Q8rDR3BUq6GvWd7yCYDjfr74ZM5c+Hv7aH+ZcmdoaIjGjRtDKBTiwYMHXOIsLCzE9evXYWVlhVq1akFfXx8mJiY4cuQInj59CqFQiD/++ANnz57F+PHjeSuJJSTEY/bs2di5cydvIFXdunWxdu2vaNeuHQTluMLXq1AR4d5fx1ErIwsmmloxNA9AEgDB7u4IGDQYLqUeKoqLi7Fw4UJYWVvhu8nfwfQVtmZkmMqIJWOmyrh37x5++eUXTJg4AdOmTkP9+vXRpEkTHDt2DKmpqejevTv09fW5kblBQYGo/VFr/C0gPMjOQbhKiUe2tohq/RFazJmLtp+0K9clKf+NSCRCgwYNIBKJ8PDhQ0il/zRDi8Vi3L17F1ZWVggKCkK1atVgaWmJ69ev4/Lly4iPj8fAgQMxZMgQbk/g2NhYfP/999i7l9/M3aRJE6xcuRKtW3/MnXufTE1MEJWZhbjgm/BUE4xKbS5xTl8PsqFD0aFXH95SmhcvXsTatWsxdOhQfPzxh/m+Gea90O5EZpjK6ty5c1StWjXavWc3d66goIA+/vhj6tq1K0kkEiLNAC6pVMoNXMovLKSQ0FC6fvki3bkdTEkpKdz175tEIqF169aVWZDDwcGBVq9eTXK5nNRqNcXHx9ODBw8oKiqKiouLueufPn1Kn332Ge9aANSiRQsKDg7mfa0PISkpiX6eNIHm29vSAT09OqinR3NsrGh8n970JPIpL1apVNL48ePJw8ODwsPDeWUMU9WwmjFTZRARLly4gHv37sHNzQ1isRh79+7FsWPH8NVXX6FZs2YQCASQSqU4dOgQTExMYGtrC0MDAzg6OMDV3QMu1avD4j/Wqn6X9PX10bBhQ5ibm+PRo0fcfGCxWIwbN25AKBSifv363MIXtra23ICmyMhITJo0CadOneLds2nTpli/fj0aNmzIO/8hWFhYoH6btqCmzfC0dhAKOnRE3TFjkV5cDHsbW3h4eHCxmZmZWLFiBdzd3TF27Nh3NtCMYSoCloyZKsPS0hKOjo64e/cuTpw4gTNnzuDevXvo0aMHRo4cyS36oVQqcf36dbi4uMDJyUn7Nh+cQCBA7dq1YW9vj3v37nEJWS6X4+7du9DT00Pt2rV5I7DDwkIxdepUnDlzptSdgE6dOmH16tWoU6cO7/yHJBIK4eXujhbNmqFZ06bw9vJCeGgonJyc4F5qk4zk5GQcP34cXbp0QYsWLXj3YJiqhq3AxVQ5iYmJiIqKgkQigaOjIwIDA3mJi4hQUFAAIyMjGBoa8q6tSNRqNfbv348ffvgBMTEx3Hkzc3MMHjoUH33UHGqlCioCNm3chJvXr/Ou/+yzz/Dzzz/Dz8+Pd74iKiwshL6+Pu/3VFxcjKSkJNjb28Pa2poXzzBVDUvGjM5RqVR49uwZbGxsYG//bqcuvS21Wo1jx45h0qRJ3HQmEYB2+vroZWIEUxBuQ4BdBUXIKXXd559/jmXLlsHH592PBn9bcrkct27deuH0LIbRFawThtE5SqUShw8fxr1797SLKhw9PT306NEDq1atgrePD0QAxgJYp1RiQEERuheIMbugCL8AqA5AZGCAQYMGYf369ZUiEQOARCLBrl27kJKSol3EMDqD9RkzOsnIyAhubm6VpvnT19cXds5OyLl8EVOLpXDXrGKl1tSU/QDk6glQvU8fLF68GDVq1NC+RYUlEAhgaWmJgIAAXjM1w+gSVjNmdI6+vj4aNGjwzpa5fBf+GbRVB42tzeEGoPR+SGoAQgAtRfr4pGkjuLm5lSqt+IRCIVq0aFFpHowY5l1gyZjRScHBwdi7d6/26QpNX18fSoEeLxGXphQIoC8yeOFykxVZSEgI1q1bx9vWkWF0DUvGjE4iIqSnp2ufrtBquLjAsE4DhGlqwgLNSwhADCDC3h6etevi/awZVn6kUinUajWEQqF2EcPoDDaamtFJEokEEokENjY22kUV2o1r13Di66Ho8TwWAZpEnAHggEgfhjNnYsSMmTCpwNO1XkQul0MikcDc3Jwt7MHoLJaMGZ2kUqkQGRmJatWqwcrKSru4wlKqVDh35i9cWrEMZo9CYaRWI83JAd7Dh2PAiFGwrkT/L9BM3YqIiIC1tTVcXFy0ixlGZ7BkzOgkqVSKmTNnokuXLvjkk0+0iyu89OxsxMfFobi4GNVr1ICHqyuElbBWWVxcjAULFqB9+0/Rtm3l+z0wTHlhyZjRSSqVCpcvX0a1atUQEBCgXcy8JwqFAtevX4efnx9b8IPRaSwZMzpLpVJBpVJBJBK99719mX/I5XKo1Wpu+0eG0VWVr12LYcpJcnIyNm/ejIyMDO0i5j25dOkSjh8/rn2aYXQOS8aMzhKJREhOTkZ+fr52EfMeqNVq5OTkwMDAQLuIYXQOa6ZmdJZarUZ+fj4sLSyhJ2TPpR+CTCaDQCBgCZnReewTiNFZJXNaQ0JDIJfLtYuZdyw5ORmPHz9mc4sZhiVjRtelpaVh957dyMzM1C5i3rF79+7h6tWrUKvV2kUMo3NYMzWj0yQSCUJDQxEQEAAzMzPtYuYdiouLg0KhgLe3t3YRw+gclowZnSeXy1FUVAQrK6s3bjKNjo5CTEws2rVrx1tjWSKR4MGDB4iMjISZmRkaNmwIT0/PF06lUr+npip1qXWtPxSxWIzi4mLY29trFzGMTmLJmNF5UVFR2Lt3L0aNGgUnJyft4pciIhARsrOzMXfuXISEhODKlSvQ19cHACiVSqxcuRJbtmyBmZkZJBIJ7O3tsWzZMjRp0gQAoCZCeEQ4Qm/egDg9HYbW1vBp2Bj1GzaEgeY+5eVZbAz+vnEd2bGxEJmYwKthIzRo3ARmJiZcjFwuR0JCAgoKCmBra4vq1au/kw0cdu3ahaysLEycOPGFDyYMo2tYMmZ0Xk5ODg4fPoz27dvD1dVVu/ilsrKysG3bNpw+fRq3bt1CQEAA7t27xyWvmzdvol+/fujatSvGjx+PlJQUTJ06FUFBQdi4cSMMDQ3x19EjeLR4IWqGhsFOqUSenhBRnh5wmTABnw8YBHNTU+0v+9oIwJ2bN3Bp4QK43r4NF4kUEggQ5eIM4eAvMXTqTNhYWiA9PR2rVq3C9evXoVAoYGBggC+//BKDBg2CaTl8H6UdOXIEVlZWaNOmjXYRw+gklowZnUdEUCqVEAgEXK32VWRmZmLr1q14+vQp7t+/D2NjY9y+fRtCoRBEhO+//x4HDx7EgQMH0KBBAwDAggUL8Mcff+DUX39BWlyM/YMGoM/jUHiWum8WgO12toho2RLG1jbAW75FVQAE9+5gWPgT1AOgr0nQRQD2mRrA8KflGDpiFJb9/DN++eUXjBs3Dk2aNMGRI0dw/vx5/PLLL/j888+1b/vGSlY+09fXf+NuAYapalgyZhhNk/KOHTvQsGFD1KlTR7v4X8lkMsyaNQvXrl3DzZs3oa+vD4lEgoEDByItLQ3Hjh3j+kb37duH77//Hrv/+AOZYSFQjhmLrmqCqtT9RADuABgO4Fmp829KAOBHAJM0/cUlb3ghgBQABzp1RIelP+HLAQMQWKsWdu7cCUNDQ6Snp+Pzzz9Hw4YNsWbNmnJprpZKpTh06BACAgJQr1497WKG0VnssZRhNHOOi4qKEBERoV30nwQCQZl+T5lMhsLCQpibm8Ow1P7CZmZmICLkFRYi8/kzVFNTmYFUagAOAMpz24QAzZu99JO3GoA1AOuMDMTFx6OoqAg1atTgvl9zc3PY2dkhOjoaEomk1JVvrqioCOnp6TAyZmtRM0xpLBkzjCYZDx06FO3bt9cu+k8lA7lK09PTg0gk4p0DADWpoaenByNDQxhbWUGsHaB5U0oAFGgXvIUXzaIWAFAAkBgZwcnJCY4ODggLC+PmXD958gTh4eGQSqVQKBTal78Ra2trDB06FN412XQmhimNNVMzTCnPnz9HZmYmGjVq9MrNsi9qplYoFBg2bBiePn2Ko0ePctsD/v777/jpp59w8PBh5KUmI3jQAAxOz4ZlqSlHCgAHTIwR3LEjHP0DIHiLt6hAIEBBURGERw5gfEIKnDRfp8RlARA6cRzGL/oZB/f/ienTp6NevXrw8fHBjRs3EBYWhpYtW+Lw4cOwsLAodeXrS0tLw4MHD9CmTRuYlBrBzTAMS8YMw3Pz5k2cOnUKkydPhq2trXbxC70oGQPA6tWr8dNPP2HTpk347LPPUFxcjHHjxiE2NhYHDx6EyNAA2xcvBNauQ/OCIthoBlU9EAmR9uUgDFywCDVcXLS/3BvZvX4dEhcsQOv0DDgDkAEI0QMeffwx+q9Zi9q1akGhUOD48eM4d+4cpFIp3N3dcf36ddja2mL37t285vY3cfr0aQQHB+P7778v99HZDFPZsWTMMKVIJBLEx8fDy8vrhc3MLyKTyTB9+nRcuXIF9+7d45JxfHw8+vTpA7lcjoEDByIhIQFHjx7FzJkzMWrUKOjp6SEnLw8XjhzCs1OnoExOgp6NHVzatcOnffuierXyScQAIC4uxtVzZxF++BCKoyIhtLCA3Uet8XHffvDz8YFUKsXu3bvh4uKCNm3aQCgUIjU1Ff369UOnTp0we/Zs7Vu+ttS0VKhVariU0wMGw1QlLBkzjBYiwr179+Dg4AB3d3ft4jKUSiW2b9+OsLAwrFy5kjdd59KlS1ixYgViYmJgamqK7t2749tvv4WVlRUXQwCKioshFothbGwMM1NTCN/RQhjFMhkKCwsgEhnAwtwc+prvtbi4GP3790diYiK2bt0KZ2dnrFmzBkePHsXmzZvRokUL7Vu9Mrlcjpu3bsLXx5drrmcYho8lY4bRQkRYs2YNZDIZpkyZ8kpzYeVyOdRqNYyMyo4SzsnJQWZmJoyNjVGtWrXXmsv8Pp07dw4zZ86Evr4+TExMkJGRgdGjR2PkyJFvtcVhVFQU1q1bh2+//ZatQ80wL8GSMcO8QHJyMhITE9G0aVPtoiqLiBAZGYmHDx9CKpXC398fDRo0eKtEDAC5ublISUmBj4/PKzf9M4yuYcmYYV5CoVAgNDQUNWrUYBsavAEiwuPHj2FgYICAgADtYoZhSvnv9jeG0VFyuRxHjhzBuXPntIuYV5CdnY0tW7YgJSVFu4hhGC2sZsww/yIyMhJSqfS1l8hk/lltKzQ0FHXq1GHzihnmP7BkzDD/Qa1W48KFC/D29oaHh4d2MaNFoVDg2rVrcHV1ZQO2GOYVsWZqhvkPRISIiAgcOXIESqVSu5jREh8fj5MnT5bbetYMowtYzZhhXkFeXh7S09Ph6uoKY2Nj7WJGQyKRQCqVIj8/H9WrV6+w07gYpqJhNWOGeQVWVlbw9fXF6dOncfLkSahUpTc9ZAAgISEBv/zyC3Jzc+Hu7s4SMcO8BpaMGeY12Nvb4+rVq8jNzdUu0nnh4eEQCARsGhjDvAHWTM0wr4GIkJubC6FQD8XFEjg6Or7SCl1VWX5+PvLz8+Hg4AB9fX1WI2aYN6DbnyIM85oEAgFsbGyQlpaOjRs3IjIyUjtEpyiVSvz55584fvw4S8QM8xZYMmaYN+Dm5oZPPvnkhWtR65patWqhc+fOLBEzzFvQmWZqlUqF+/fv49y5c8jMzET16tXRtm1b1K9fn2tmDA0Nxblz55Ceng5/f3906NCB7TLD/KeLly6C1ISPP/5YZxJSekY6zp09h6ZNm7K5xAxTDnSiZkxEOHXqFL788kscPHgQ6enp+OOPPzBo0CCcOXMGAHDr1i0MGTIEO3fuRHR0NBYvXozJkycjMTFR+3YMw0fAw4cPkZeXp11SZcXHxSMtLQ1mZmbaRQzDvAGdqBkXFBRg+PDhiImJwaZNm+Dr64vQ0FB89dVXqFevHtatW4cJEybg3r172LhxI+rWrYujR49izpw5+PHHHzFkyBDtWzIMR6VSoaioCMA/SdnHxwcuLi7aYZWeSqXCnTt3YGJiAn9/fygUCpaMmXIlFosBAKamptpFyMvLg0wmg5WVFQwNDbWLKz2dqBkXFhaisLAQPXv2RIMGDWBmZobGjRujVq1aSEtLw+OQx7h9+zY++eQTtGrVClZWVujatStcXV1x7do1NqeU+VdCoRCWlpYQiUS4fPkytm7dCoVCoR1W6UVGRmLnzp0oLCyEoaEhS8RMuRKLxVi0aBF27tyJ0nXE/Px8/PTTT+jSpQs6deqEL7/8Enfv3uXFVAU6kYzt7OywatUqDBs2jDt39epVPHr0CH5+fsjPy0dBQQH8/Py4/mNTU1M4OzsjIyODLYHIvBITExNMnjwZQ4YMQUFBAYKDg5GTk6MdVqkolUqEhITg8ePHcHV1xZw5c9CiRQvtMIZ5YwUFBXjw4AHWr1+P33//HampqVyZXC7H4sWLsXz5ctSqVQs9e/ZEfHw8pk6dioiICN59KjudSMaGhobw8/ODo6MjsrOzsXHjRowfPx52dnYYPnw4hEIhAPCe9IVCIUxNTSGTyaBWq0vdjWFeztLSEm5ublCpVDhz5gxOnTpVqZ/gU1NTcejQISQkJMDMzAzVqlXT+XnVTPn6+++/MW3aNKxYsQJZWVkQiURcWXx8PA4ePIhevXph1apVmDVrFlasWIG0tDRcuXKFd5/KTqfeVTdu3MCAAQOwaNEitGnTBjt37kSDBg0gEolARLzmaCKCTCaDkZERl6wZ5lU5ODhg3LhxaNOmDbKysnD48GGkpKRUisQsl8tx8eJFnDlzBnZ2dhg9ejTat2+vHcYw5SIwMBA///wztmzZgoCAAF5LZEZGBsRiMRo2bMj1I/v7+8PMzAwhIY9BVHUqSjqTjC9cuIDRo0ejoKAAv/76K1atWgU/Pz9A04wtEomQlJTExUulUmRlZcHBwYElY+aN2NnZoXr16iAi3L9/H4cOHYJSqYREIqmQrS1SqRRSqRQpKSk4ffo0pFIpjI2N4ezsXCUHzDAVg42NDRo0aIAGDRrA3Nyc996wsLCAUChEdHQ0Nw7j2bNnSE5ORlGRGEpl1RnPI5w3b9487ZNVTXZ2NmbNmgW5XI5169ahUaNGkMvl3IeijY0Nrly5gvDwcHz00UewsrLCxYsXsX//fgwYMAD169fXvuVrUSqVkMvl0NPTg0Ag0C6GSqWCXC6HQCBgTYAvIJVKERcXB5FIVCYppKenIzIyEsnJyVCpVDAzM6twP0NTU1M0bdoUPj4+ICLs2LEDCQkJ8PHxqTAPenFxcdi0aRNkMhlq166NZs2aoV69etphH5xYLEZ8fDxMTEx4zZkAUFRUiPj4f5rTdWW+95siIqSnp+Pp06dITk4GEcHc3LzM55NUKkV8fDwMDAxgYGDAKytveXl5OHDgADw9PdGmTRsIBAJYWFggISEBR44cQVJSEh4+fIj169cjKioK9erVQ7du3Src+/1N6UQyfvLkCX799Vfk5+cjIiIC+/fvx4EDB7B//348f/4crVq1goWFBfbs2YP79+/jwYMH2LRpEzw8PDB27FhYW1tr3/KVqFQqXLt2DWvXrsWff/6J+/fvw9jYGDVq1AA0b4ibN29iw4YN+PPPP3Hr1i0IhUJ4eHiUeVPosvv372P+/Pnw9vZG9erVufM3b97EtGnT8Ntvv+Hw4cO4cOECTExM4OvrW2GSXAkDAwOYmppCKBRCqVRCpVLBzc0Nd+/exfPnz+Hs7PzeE0hcXBxOnToFExMT6OvrQ6FQoG7durC1ta2w20SePHkSq1evRqNGjWBra8srO3r0KNasWYOPPvoIlpaWvDKG7/Lly5gxYwY2bdqEI0eO4PLlyzAzM4O/vz/vsyc4OBiLFy+Gv78/nJ2defcobwUFBTh48CAvGYtEIjRs2BCGhoaIiIhARkYGAgICkJ+fDz8/P3Tu3LnKfFZWjUeK/2BmZobevXvj008/hYODAxwdHeHk5ARnZ2fY2NiAiNCrVy/88ssvMDIywuPHj9GyZUssX74cnp6e2rd7ZWfPnsWwYcNw9uxZ5OXl4ciRIxg8eDAuX74MALhy5QqGDh2KQ4cOITs7G2fOnMHAgQPx559/Voq+xXeJiPA85jn+/PNPzJ07F1euXEFxcTFXnpWVhSlTpuDZs2eYPHkyFi9eDIFAgNmzZyMkJIR3r4pEJBKhZcuW6Nq1KwwMDJCWloajR48iNTUV2dnZuHfv3jvbEUqlUuHZs2d4+PAhpFIp7t27h/v37wMAXF1d0bNnT7i6umpf9sGpVCqEhoZi8+bN+OGHHxAWFgaZTAYAUCgUePz4MTZv3oyZM39AeHg45HK59i2YUjIzMzF37lzExsZixowZ+PHHHyGTyTBjxgyEhoaCiBAZGYk9e/Zg1qxZCA4OhlQq1b7Ne1FYWIiIiAj06NEDO3ftxI4dOzBixAiIRCLUqlWryiRi4J8PPaaUwsJCysrKIpVKpV30WqRSKfXp04dq165NDx48IJlMRlevXiVfX18aOHAgicViGjFiBPn5+dGNGzdIKpXSo0ePKDAwkDp06EBZWVnat9QpSqWSVq9eTXXr1iVHR0eys7Ojy5cvc+Xnz58nOzs7+u2337hzly9fpmrVqtHGjRu5c5VBQUEBKZVKCg0Npe+++44uXbpExcXFdObMGbp69SpJpVKSyWSUn59PSqWSiIjUajWp1WruHqX/LRaLKS8vj1QqFSUlJdG+ffvo0aNHlJ+fT8uWLaN169ZRQUEBSSQS7n4VWWFhIU2fPp38/f3J2tqaAgMDKSwsjIiIcnJyaNKkSRQQEEBWVlYUFBREz58/174FU8qlS5fIzs6Otm3fRqT52zlx4gTZ2trS1q1bSaFQ0E8//US1a9cmOzs78vDwoODgYO3blLuEhARq0qQJzZo1i/t7TkxMpPr169PAgQMpLS2NMjMzadq0aVSvXj169OiR9i0qNZ2oGb8OMzMz2NravnU/RHFxMZRKJfr374969erBwMAA9erVg6+vL+Lj47naT79+/dC8eXMYGhqibt26CAoKQnp6OgoLC7VvqVP09PTQu3dv7N27F9OnT4eZmRlvtLuNjQ3GjRuHjz/+mDtXMgqzojVR/xdzc3MIhUL4+/tj2rRpaNiwIYgI+fn5iIyMhFwux99//40ff/wRd+7cgVQqxd69e7F3717IZDJERUVh5cqVuH//PqRSKbZt24Zff/0Vubm5yMnJQUJCAogIZmZm+PLLLzF48GCYm5tXmpkCxsbGGD16NNeypFQquZYjc3NzjBs/DocPH8bgwYOhUql0vlXpv1hZWWHMmDH4qOVH3Dm1WsWNWREKhRg4cCD279+PyZMnQyQSvZcBh3p6ejA2NuZ11zg5OaFv3764desWBg4ciIEDB+LYsWMYOXIkatWqxbu+0tPOzkz5UCgUFB0dTZmZmdy5CxcukIeHB40YMYLkcjnFxcVRRkYGV3737l3y8PCgHj16UH5+Pnde1x0+fJi8vLzowoUL3DntmuH9+/fpk08+ocDAQAoJCeHOV2ZqtZoUCgUREWVmZtKtW7coMTGRiouL6dSpU3T48GESi8X07Nkz2rZtGz1+/JgUCgWFhobS48ePSSqVklqtrhS131f1008/kZ+fH4WGhmoX0ZIlSyggIICePXumXcSUov3euXv3Ln300UdUp04dioiI4MXt3r2bfH196ebNm9z5d0UikdDNmzfpyZMnvO9PKpXSuXPnaMmSJbR48WK6dOkSyWQy3rVVAUvG70FGegZt3ryZgoKCqFmzZmWaV3Jzc2nnzp3UoEEDqlWrFi/pMEQHDhwok4xLJCcn04qVKygwMJDq169PR48erVLJh+FbsmTJS5PxokWLWDJ+DYmJifTTTz+Rv78/NW7cmE6ePMkrV6vVtGPHjnJLxhKFgrLy8ylXLKa36wSsmt6uLbaKyMnLw6OQEFy4fAkxcXFQl1Mzl0qlwuXLlzFs+DAsXrwYrVu3xm+//Ya6desCANRqNW7cuIHRo0fjxx9/RJ06dbBz50588skn2rdiXuDevXsYMXIEtmzegu7du2PXrl3o1q1bpWh6ZZgP6caNGxgxYgR+//139O7dG7t27UKXLl20w8qFSq3G7eBb2Dx7FraMGonfvh2LPZs2IjU9XTtUp+l8Mr527SpWfjMcp/r0xN3BX2LDl33xx/bfUSz9Z7Tm27h69SomTJgAmUyG3377DcuXL0dgYCBXHhwcjHHjxiE2NhYrVqzAmjVr3npOs65IT0/H1KlTUZBfgE2bNuHHH39EQECAdhjDMFrS09Mxd+5cyOVy7NixAwsWLICPj492WLkgIpw/8xdOjh4Bn+XL0HXfn/hk23ZIp03B6gnfIint/+tQ6zqdTsa379zG8ZHD0X7fIYyJeo4xSSkYdeMuno8Zi99XrYD8LXbeKSwsxIoVK2BkZIQVK1bgo48+glKpRGFhIaRSKQoLC7Fx40ao1WqsXbsWn376KQQCAQoLC1FcXPxeBkxUFkQEtVrNG5hz7tw53L9/Hy1btgQR4fLly7h48SIuXrzI9qCuwkr+Fl7k38qYfxARLl68iDt37qB58+aQy+W8907pVQhL4rXfe68jPikJl+fPRe+QCLRWquEBIABA/wIxAvYfwp/r10Iqf/PP2apEZ5NxkVSKv9atRYfIZ2gEwBCAPoBqAEZIZUjftB4PHj3UvuyVJSYm4saNG8jKysKsWbPQt29fDBw4EAMGDMBPP/2E+Ph4hISEICcnB4sXL0a/fv0wYMAADBgwAPPnz0dmZqb2LXWWsbExnJyceKtvpaamwszMDAcOHMCoUaPwzTffYMyYMfj2229x7do13vVM1WFmZgZHR8cXLpBiZmbGlq99Bc+ePYOJiQn27duHkSNH8t47N2/e5MWamprC0dGxzGpnr4I0ixq5/R0CbwBKACrNfwUA2hJBfOkSEpL5DwC6SkBv+shTyYVGRuJI9+4Y+fQpzACU/iGIAPxlYID8tWvx1YgRpUpeXUJCAnbu3AmpVMp7WlepVPD19UW7du1w7NgxpKWl8Z461Wo13Nzc0K9fvzde+auqycnJQWJiItzd3bmVlRISEpCSksL72RIRBAIBPDw83vlqQcyHkZKSgqysLNSsWRMmJiYvLPPx8YGRkRGvjPm/mJgYpKen8z53St47np6ecHJy4s5nZ2cjKSkJnp6eMDc3586/CiLCshUrEDB1KtpqEnEJAQA5gD9qBaLRnl1oUuefcTS6TGeT8b2QxzjfsxdGPn8Ooxck4/N6egibMxtTf5j1wqdwhmEY5uWICH/8+ScKhgzBYLkcVOpzVg9APoAdLZqh9+4/4O3urnW17tHZZmpXl+rId3NDCoDSjVp6ANQAbqrVOHb2HEJCQ0uVMhWFGoBcpeI9RDG6R0mAgvUTV0hEhLTUVBxQqRCt6QbU11R2CMBlfT0YtPkYNapV075UJ+nERhEvYmZigjwDEW5fugAvqQyWmqQsA3ACwC8AIpKTkZeXh/affsqavSoIhVKJmzdv4NQfe3D7+DGEhYVBYPTPNn+M7igUi3Hm1Elc2LcX986fRURUFCwcHWFjaaUdynwgV69exdy5c/EoKwuJAIw1STgBwAEA60VC9JwwCUFVbSWtN6SzyRgAZCol5uw/gAeFRSgEEAVgn54efiFCyZCC6OhoGBsbo0WLFm+9RCbzdpQqFfbu+B23v5uEgKPH4HsrGIpLl/DXrSsQOzrD399f+xKmCsrJzcXGRT8iY+481Dl3Dq43byLn/HmcDHkEcx9f1Ci1sxfzYaSnp2P69O9x5/YdAEA0gHsmJnjk4IDNhYU4BSBNTXBzdcXHH3/MBt3pcp+xSqXCvPnzsHDhIkDzI2jaoAFGjBuHvXv34sLZs1ystbU11q9fj759+77xLiFKlQoZWVkQi4tgaGQMBzs7GL3j/UGrmnOnT+PqsCEYlpqJkoYtAvAMwDZvT7T5ZQ38fHyh0qxRzVQtAoEABODSkcNQz5+HflI5zDRlBOAOgJvdu2Lwuk2s6fMDkkqlWLp0KRYtWsStF29oZITpP/wACysrTJk8GaTZWatevXrYvXs3WyNAl5NxeHg4+vTpgydPngCazQUWLV6M76dNw61btzBs2DA8ffqUi2/QoAG2bNnCrZ71OjKys3Fq/z5knz0HpCZDYGsHs1at8Gn/gfB0c9MOZ15AIpdj9YQJqLtxIz4GUDIzUQDAAMBpATDbpTpUlpbcwxVTtQgEAqiI4J+ehqXZOaihmSYDzVgPBYB91hZw27YDnbp117qa+S/RMTF48uQJCvPz4eziggYNGsDSrORx59UQEQ4fPoxvv/0WaWlpgOb31r17d2zYsAEFBQXo2bMnwsLCAM10tGXLlmH06NFad9JBWstj6gS1Wk3z5s0rGdxHAKhWrVq8NW337dtH1tbWvJgvvviCt/HDq8grLKQlk8bROnMjegJQAkDPAPrD0IDmD+pHSamp2pcwL5CanUU/tPmYogASA1RQ6iUB6G+AXEv9rtir6r4GAZQNUJHW30ERQHsEAtq15hftPx/mX8iVSjp26CD90LwJrbexoX3m5rS8miPNHzaEwp480Q7/V3///TfVqlWL9/sKCAig27dvExGRTCaj7777jisTCATUuXNnys7O1r6VztHJTtCEhAScOnWKd65v377w8vLijnv06IHhw4fDoFRT8pEjR7Blyxau6eW/EIBbVy7BcOcu9CuUwhWADQAnAF1kcjjvP4TLR4+W21rYVZm+vj5UxiYQv2AKgB6AQgAfZvtz5n0r0MxRLd1hVPJvuUgfRhYWpUqY/3L/9m3cnj4F/W7dwdCcHHxeWIjRKenw/n0n9syeidSMV1uAKDs7G8uWLUN4eDh3zsTEBJMmTUKTJk0AAAYGBujUqRPs7e0B/FOTDg4OxuPHj7lrdJXONVMTEbZu3YoJEyaguLgYAODj44MjR46U6beIi4vDhAkTcPz4ce6cnZ0d1q5di759+/JiX0SmUGDz3B9Qe+kyNCT+pHchgKcAzvTtgwnbd8KUjdZ+KaVSiQOHDmH+lMkYkpSMbzXTI1San2MRgDUmRjhc3RUqoZA1U1dhJBDAsagIU5OT8ImauOqXCEAigOl6erAdORJLliyBtRUbWf1fJHI5fhk/FvU2beF1/+hpfq5/mJnC9rdN6NV/oNaVfAqFAmvWrMG8efNQVFQEaB6gv/32WyxevBjGxsZcbHZ2NgYPHoy//voL0DRjDx8+HBs3btTpQbI6l4zT09MxfPhwnDx5EtBsaD1p0iQsWbLkhUu+3b17FwMHDsSzZ8+4c4GBgdi+fTsaNGjAi9Umlkqx4bvxaLlhM2prrUCjByAOwMGO7TDp4FFYmJqWKmVKqNVq7Nq1C/Pnz0dsbCyqA5gCoL2mlSEFwF8mxsC3Y9B96DAYikRvvI4uU/EJBAIkJSbgwo8/otblK2imGTMQC2AbgD0AyNgYo0eNwry5c2HFEvK/SsnIwJpuXTDy9n04aX1G6QO4KRDg2awZGLFgEW89Bm0XL17E0KFDubWtBQIBOnXqhE2bNqG61uj2kgrRuHHjIJX+057l5uaG48ePo3bt2rxYnaLdbl3VHT9+nNcX7OrqSufPn9cO46jVatqzZw9ZWlry+jkGDBhAGRkZ2uE8CpWKNv28hE7oC6kYoMJS/VvFAF0FaOX4cSTVbCDPlLV7925ydnbmfvYAyAygegLQJwD5AlTLy4ueRkZqX8pUYYsWLyY7gYAaAdQaIE+tfmWRSESTJ0+mwsJC7UuZUlKyMmlqiyb07CVjMc4IBLRp/px/3X84MTGRWrduzfv5u7q60qVLl7RDOVFRURQUFMTFC4VCmj17tnaYTtGpNoHi4mLs3r0bubm53LnWrVtz/RkvIhAI0KtXL3z77bdc/3HJiMH169f/a/+xvp4eGn3aAXcDAvBU06Qq1DxxJgC45u6COp9/DkO23GYZxcXFWL9+PSZOnIjU1P9vs2ZlZYWuAwYg29MLFwFEAkjJy0NRYSHveqbqksvlSE9LQxYR7gG4KhTC7dNP4e3ry8UoFAqsW7cOS5cuRV5eHu965v9sLCxh37AxSnp5S/rehQAkAKKsLOAcWKfMOI0SBQUFWLhwIa5evcqdMzU1xYQJE9C6dWtebGleXl7o2bMnd6xSqXD69GnExMTw4nSKdnauys6dO0dWVlbc05ixsTEdOnRIO+yFEhIS6LPPPuM9/Tk6OtLhw4e1Q3kUSiUd+mM3DXWpRr8CdEoA2gbQLG9P+mPjeiqWSLQv0XlSqZRWrlxJDg4OvJ+3ubk5/fjjj/Ts2TPq1KkTd97Q0JD++OMP7dswVVROTg5169aN+/2bmprS7t276cSJE+Tj48P7m7GwsKDZs2dTcXGx9m0Yjfv37tLsBnXoOkC5mhpyKkBbDYS0cNhXlJ6VpX0JERGpVCravHkzr6VRIBDQ0KFDX2l09OPHj8nFxYW71szMjLZt26YdpjN0JhlLpVIaPHgw743aqVMnys3N1Q59qeDg4DJvdn9/f7pz5452KE96RgY1bdaMhABZAWRjZEi/b99GStW/Nf7oJqlUSj/99BOvWwAAWVtb09q1a0kmk5FSqaQxY8bwyqdMmaJ9K6aKevLkCdWvX5/73deoUYNu3rxJpOmG8vDw4P1tGBgY0KxZs6ioqEj7VozG1SuX6Ys6tWkkQD8A1E0goIlfD6WU9HTtUM6dO3fI39+f97Nu3rw5xcbGaoe+kEKhoJEjR3LXCgQC6t2792t9JlclL2t9qHIePXqES5cuccfGxsbo27fvaw3waNq0Kb7//ntuGz8AePLkCX7++Wekp6fzYksrFoshkUigApAHQGloBD9fPwh1eOTgi4jFYixbtgwLFixAfn4+d97BwQFz587FqFGjYGBgAKFQCC8vL95qaNHR0ZBrVvVhqraUlBRuoBAAODs7w9HREQDQtWtX/Pjjj7y1yuVyOVatWoVffvmFm0HB8DVt3gKmjRrjNwCLABwH4Ne0OZwdHLRDAQCZmZlYsWIFt2gSNL+HqVOnwv0Vd2ASCoXo3Lkz7OzsAPzT/Xf79m3e1ChdohPZQCaT4fDhw0hOTubONWvWDB06dODFvYovv/wS48aN4428PnXqFDZt2gSZTMaLLZGbm8vr07QwN4dVqYTO/LNn8dKlS7FkyRKIxWLuvLOzMxYuXIhRo0bxtrL09fWFoaEhd5ycnIzMzFebD8lUbklJSSgoKOCOa9SoAVtbW0AzxmPAgAFYuXIlLymIxWIsX74ca9euhUzGZqSXQVRmeqWk1PuwNJlMhtWrV+Pw4cPcOSMjI3zzzTfo2LEjL/bfCAQCNGzYEA0bNuTOJScn4+TJk/86Fqeq0olkHBUVhbNnz3JTXvT19dG7d2/eJtqvSiQSYcyYMejUqRN3TiqVYt26dThx4gQvtkR+fj439w4AbGxsYMEWJuAUFRVh8eLFZWou1atXx88//4yhQ4eW2TVLe3P55ORkbvk9pmqLi4vjPfi6ubnBtNTUQIFAgL59+2LJkiVwcXHhzufl5WHp0qVYuXLVSx+cdZVQKOQtcAQAEomEdwxN7fXYsWNYt24dlzAFAgE6dOiAUaNGlXmf/hcnJyd06NCBNzj2xIkTiI+P1w6t8nQiGZ87d47XnFK7dm18+umnvJjX4ezsjGnTpvF2CcrIyMDcuXPx999/82KhqfWVfpK3srJiyVgjOzsbc+bMwZo1a3gPLO7u7li+fDkGDhz4wvnfTk5OqFZqM4CCggLExcXxYpiqRyqVIiYmhnuwFgqFcHV1LfM3IhAI0KdPH/z4449cEzY0rVSLFi3CunXroFCULHHBCAQCXksTNDMatIWGhmLFihW8Eep+fn6YN28eHF7SpP1vhEIhOnToAFdXV+7c06dPuXUgdEmVT8ZpaWk4dOgQ98bT19dHly5d4OHhoR36Wpo3b47vv/8eZqUWUo+IiMC8efOQkpLCi83JyeE9ZVpZWfGu01XJycmYNWsW1qxZw/tgrFmzJpYtW4YvvvjipbtkmZiYoH79+tyxVCpFdHQ0L4apegoKCni/ZysrK9SsWZMXU0IoFGLw4MFYunQprxVMLBZj8eLF2LBhAxtnoCEQCMrUarVrxnl5eVi5ciXu3bvHnbOzs8Ps2bPfaAOdEt7e3ujcuTN3rFKpsG/fvn8dh1MVVflkfPr0aTx48IA7rlGjBjp16vTW+2cKBAL069cPY8aM4fVlnjlzBps3b+ZWloEmGZdmb2//0iSjK9LT07FgwQJs27YNKtX/1/0JCAjAsmXL0KNHj3/9GYlEIt7ypSqVCrGxsTrZ16RLsrOzkZCQwB1bWVn964O1UCjEoEGDsHDhQt6gruzsbCxatAhbtmyBWq3mXaOrtFsXSteMiQi7du3C/v37ea0SQ4cOxeeff17qqtenr6+PXr16wcbGhjsXGhqKGzdu8OKquiqdjNPS0rBt2zbe02/79u15Naq3YWhoiClTpuCzzz7jzslkMqxbt45bz1qtViMjI6PUVeD1Y+mixMRETJkyBVu2bOH13dWuXRsbNmxA9+7dX+lhycvLi/c0n5iYyOsOYKqemJgY3sNt6ZHUL6Ovr48hQ4Zg4cKF3MhdaLqWZsyYgc2bN7Mma83nWWklyZiIcObMGSxevJhXW27Tpg3Gjx/P669/Uw0aNED79u254+LiYhw9ehSFOrSYT5VOxhcuXOD14dra2mLAgAFl/ujehr29PaZOnQo/Pz/uXGZmJn788UeEhYWVScYCgYDX16lrYmNjMXXqVOzZs4dXI6lfvz6WLVuGVq1a8eL/jYuLC6ytrbnj1NRUttpSFRcVFcWrsXl6er5Sl4++vj4GDRqEmT/M5E1nLCgowIIFC7Bnzx5eC40u0v5cLKnExMbGYtmyZbwBkq6urpg2bRpq1KhR6oo3Z2Jigu7du3OJnYhw69YthIaGaodWWVU2Gefm5uLIkSO8J6vPPvsMTZs25cWVh6ZNm2LatGm8xBAWFoY5c+YgKiqKl4yFQiGqOetmMg4PD8eUKVN4TV3QTDNbs2YN78n4VTg6OnJbsUHT9MhGVFddKpWKNxATmmSsnURexsDAAGPHjMWixYt4fzcpKSmYPXs29u7dq9ObjBgYGPB2TVIoFCgsLMSvv/7KW+7SzMwMP/zww1sNgtUmEAjQsmVL3jSnhIQEnD17lhdXlVXZZHz37l1en4OlpSW++OKLMsP3y0PJVIoRI0bw/phP/PUXfly6FDGJidw5I2Nj2Nr9MydSl0RHR2PSpEk4evQo7wOvbdu22LBhA1q0aMGLfxUWFha8UZh5eXm8/kSmaiksLERYWBh3bGho+NLBWy9jYGCA4cOGY/bs2bzFe5KSkjB9+nTs3r2bF69LTExMeJ+PUqkUBw4cwK5du7hWLD09PQwYMABffvllqSvLR8k0p5IxOEqlEkdPnsTfYWHQhUekKpmMpVIpjh8/zquRfvzxx/+6IcTbMjExwdSpU3n9xzYyGTL27kGD6Eg0BmACwNLSCmbm5rxrq7qHDx9i1KhROH/+PK9pul27dvjll19Qp04dXvyrMjc35y3sUFRUhISEBDYgp4rKzs7mjaS2tLR87WQMTUIeOXIkfvjhB15CTk5OxrRp07B//36dbLI2NjbmBnEREUJDQ/HTTz8hOzubi2nevDnGjx/P25+4vAiFQnz66adwdXWFOYAWAPwe/43fBvTDmlk/ICGxaj9oV8lkHBoWhr/OnOGOzc3N0a1bN95ovXfBzs4OP/zwAwJr10ZDAFsA7FGqsVGhwiEAswB4mRhB9A5q5xXV7du3MXHiRFy+fJl3vnPnzvjll18QFBTEO/86DA0NeXNMiQhxcXG8kexM1fHs2TPe6mzVq1cvs1fuqzI0NMS3336L6dOnw7zUw3FaWhpmzJiBw0cO61yTtbGxMe+zKT4+HlFRUdyxo6Mjpk2bhlq1anHnypuNrS2a29liOYBDADap1JgRGg6Hn5Ziz4zpSCm1g1tVU+WScWZuLrZu3Yy0uDiUTDiqU78+2rVrpxX5bgTWqYNujRphMoB2AMw125HZAPgawKcZ6UiKea59WZV0584dTJkyBdevX+ed792nN1atWlUub2o3NzfeSlzPnz8vMz+SqRqePHnC+916e3tzy2C+CWNjY0yYMAHTpk3jLcITExODmTNmcjMidIVAXx8kEEAfgHYvvKGhISZMmMBr+XtdKpUKMpkMYrEY+fn5yM7ORnp6OpKSkxAbG4uQsDCc3LsHbZ88QT/NZ6e+5rOzk1INm8OHce2vU9q3rTIEVIUe/8IjwrFn/nwIDhxAEAAxgNME2A/sj0Vr18HS3AJKpRJqtbrMS6VSvfDfLzpWKBRQKpVQKBVQKpT//FuhgFqtRkZONsJWrsRX9x/AFUDpxi4DABcFQNz8uRgze16pkvcnLy8PwcHBqFu3Lm/eZWmhoaG4e/cuunTtAifH118yFACuXbuGsWPH8vr4hEIhevbsiVWrVpXb9K7bt2+jX79+3PJ5tWrVwuHDh+Hj46MdylRiCoUC3333HdauXcudmzdvHubOncuLexPFxcVYvnw5li5dykv2jo6O2LJlS7msS1DRJSYnY+OsGSjavQdNlGqoBcBVAo4AyBYI0KNbN6xctQqmpqaQy+VQKBTcSyaTQSKRoLi4GFKpFGKxGMXFxRCLxRBrNskpOS4sLERRURHvvwUFBSgqKoJMoYCHRIJtKhUCAZReMUAfQLhAgAtfDcH49Rth8oqD9iqTKpOM0zMzsW3KZPjs3IWOml8eAGQD2G1vjfC27WBgaQ2lJpEqlUqoVCru3yUJtuTfKpXq/0lX81+VSlUmMWsnbIVSidZiMVarVHB6QTK+BuBU3z74Yd0G2L/FU/3rIiJIpVLs27cPv/zyC1avXo2PP/5YOwyJiYkYM2YMgoODcfbsWTRo0EA75D9dunQJkydP5k0rEwgE6N+/P+bPn/9G/XwvExMTg379+nGrAjk4OODw4cNvNCCMqbhycnLw1VdfcbVVAwMDbN++Hf3799cOfSMFBQVYuHAh1q5dy0vIAQEB+Pnnn9GlSxde/KsiIqSkpMDY2LhMN1l+fj7S0tKgUCjg4ODwRstJlodiqRS/L1wA06U/oYdKjZJ2JjGAXQAWAKhWty483dxQXFwMiUTCvaRSKe8zsnSSfpPVzeoA2AmgptZnpxDAc4EAR/v3wfjN22BZqjWsytDeU7GyunD6L/rVxopyACoCqEDzkgAUBlDTUntuvuuXH0C3NF+75Pso1LxWA2RvZkYdOnWiTZs2vfLen29DJpPRwYMHqUePHmRra0uOjo50+fJl7TCSyWQ0e/ZsMjY2Jjs7O3rw4IF2yH86fvw4BQUF8X4eBgYGNGLkCEpJSdEOf2v5+fnUtWtX3tfavXu3dhhTyUVGRlKDBg2437OtrS3dvXtXO+yt5Ofn07x588jExIT39+vv709nz57VDn8lcXFx1KtXL9qzZw/v/M2bN6l79+7UuHFjatSoEbVu3ZoOHDhAcrmcF/c+RISH0wIfL0oCSFzqM0sMUBpAfV7wGfeuXjYAHdb67CzQfKYf0hPQxoULqKruAl9l+ozTnz+HRU4eDAGUHkurAuAI4P9Lcrx7TzWDt3I1T3RCTed8KIC9ADKLinD29GlMmjQJ/fr1w9KlS9/5lByVSgUnJyfUq1cPRkZGLxyccvbsWVy4cAFt27aFkZER1K85KvnkyZOYOHEib6K+SCTC6NGjyyxHWF5MTEx4yyHK5XI8ffqUF8NUftpbZFavXr3ca5IWFhb47rvvMG7cON4UnydPnmDixIm4cOECL/7fJCcn4+DBg/juu+9w8uRJ3noHSclJ+OGHH/D06VN88803mDp1KmQyGebPn/9e9/IlIty7fx/Lly6FUUw8LLVqoyoApu/os7NklyhjY2OYmZnB0dERPj4+qFG3Lg7bWOGZpnVTqPlvHICHAb5o1KVr1RvopFFlmqn3b9mM/BEjMaDUYxY0SbAAwCQ9AY7oG0CgJ4BQTw9CoRBCoRB6enrQ19eHnp4e9DTnS/79z7EeBIIXnRdCX18fIpGI99LX14e+yAAitRJeT8MRmJAEU7kCuaYm2AMBzuW+eIWooKAg9O7dG127doWvr2+5LDFXmlqthp6eHg4dOoTp06dj06ZNaNu2LVceFhaGMWPG4JNPPoGDgwMWLlyIY8eO8Sbhv4xKpcKhQ4cwY8YMxMTEcOcNDQ0xatQozJkz560G2vyXDRs2YOzYsdwDRrdu3bB///53Mqec+TC279iOcWPHoUj8z85ePXr0wPbt29/J7me5ublYsGBBmZ2d/P39sW7dOnz88cf/um46EWH/gf1YsXwF0tLSkJmZidWrV2PkyJEgIly4eAGjRo7C3LlzMWTIEBARjh8/jqFDh2Lnzp1vNUjqVeTn5+P+/fs4cuQIDh06hPS0NMwAMB2AoNRnp0CTkOcBWG9kBCNDQxiIRDAwMOA+6wwMDLj/GhkZwdTUFKampjA2NoaJiQlMTEy4hGtmZgZzc3Pef83MzGBqagpDQ0MYGBhAqK+PG9ev49GalfB9FAJrqQwFRgaIDPBH/e9n4LMePVkyruiuX7uGi4O/xFfxCXAs9YQnBHADwKnOHVHzs+4wNtAkTE0iFQqF3B9W2X//EyfU04dQJIS+UHNcKjFr/7vkWEWEqGfRiA15DGVhIUydnSBWEi5duIAL58+/tCbs4+ODdu3a4fPPP0fz5s150y7Kw5EjRzBt2jReMs7NzcW4ceOQm5uLnTt34tSpU5g+fTpOnTqFevXqad+CR6XZYWX27NmIjY3lzpubm2PcuHGYNGkSbz3gd+HMmTPo3r07t851vXr1cObMmXKvOTEfBhFh4cKFmD9/Pjf/d+LEiVixYgX0Si2yU55ycnKwYMGCMjs7NWzYEMuWLXvheIvSsrKykJmZicjISIyfMB4zps/AN998A2iWl7x79y5atWoFa2trZGdnY+3atTh48CB27NiB5s2ba9+uXGRlZeHy5cs4duwYLl26hNRS04TaAFgPwL3UZ6cegCgAO5o0hufQr2BvbQ1jY2MYGRlx/zUyNoKRkREMRAZcktZ+vYnIZ88QeicYkqxsGNvbwa9ufQT4+0PvXx6CKj3tduvKqqi4mDYsWUQ/W5rTE4AyAUoB6CxA0xvWoeBbN7UveW9K93EUFBTQnTt3aMqUKeTj41Omz6Tk5eTkRD169KADBw5QdnZ2qTu8nUOHDlHNmjXp4sWLRESkUqlo9erV5ObmRnv27KGsrCz6+eefycHBgU6cOEGFhYXat+CoVCr67bffqHr16rzv3czMjBYvXvyv15anv//+m1xcXLivb29vTyEhj7XDmEpKIpHQV199xf1+DQwM6JdfftEOK3e5ubk0ceJEEolEvL/vevXq0a1bt7TDX+jJkyfkVdOL1q1bp11EMpmM5s2bR7Vq1SJDQ0MaPXr0O3nPpKen065du6hjx45kbW1d5rMGAJno6dE4QwN6CFAGQOkA3QRopqsLnTx6RPuW701V7R9+kSqTjEmTkLdv3UITmjal+R5uNNPfhyb3/YKC793TDq0Qnj59SrNmzaLatWuTgYFBmTcIANLX16f27dvT9u3bKTk5mdRqtfZtXot2Mi4oKKAvv/ySrK2tqVmzZvTRRx+Rh4cHCYVCql27Nm3atIlUqrJvCYlEQuvWrSNLS0ve92tpaUmLFy8miUSifck7k5aeRg0bNuS+B4FAQKdOndIOYyqpjIwM+uSTT7jfr7W1NR058n4SRE5ODo0dO5b09fV5f+e1a9d+pYQcFhZGXl4vTsYKhYL27dtHI0aMoMDAQPL396cLFy5oh70RtVpNCQkJ9Pvvv1OrVq1IIBCU+WwBQEZGRtSwYUP6efly2rZ9G03u2IHmeHnQLC9P+u6zLnTi9F+keruPHOYVValkTESkUqspPjmJHj7+m0KeRFBuQYF2SIWiVqspKiqKVq5cSW3btiULC4sybxgAZGxsTK1bt6YVK1ZQaGgoKRQK7Vu9Eu1kLJfL6dq1a7Rt2zbaunUr7dixg7766iuytLSkWbNm0cOHD8s8AEilUlqzZg05OTnxvkcbGxtasWLFO3m6/zdSqZT69OnDfR8CgYBWrFihHcZUUuHh4eTt7c39fmvWrFnuI6n/TWpqKn399dckFAp5f+8tWrSg4OBg7XCeFyXjpKQkigiPIJlMxp0LDg4mNzc3+u6771748PuqlEolhYWF0apVq6hly5ZkbGxc5rMEAFlZWdGnn35K69evp5iYGO761KxMehT6mP4OC6WMcmyRY/5blUvGlVlycjIdOHCA+vbtS3Z2dmXeQNDUlAMDA2nSpEl0/fp1kkql2rf5VwcOHCB3d/d/fQLfvn07OTg4vHBqk0QioUWLFpGNjQ3v+3JxcaFNmzZ9kKkZREQ//vgj7/sZNGjQGz+wMBXL+fPnycjIiPvdtm7dmpKTk7XD3qn09HQaN25cmSbr5s2b0/3797XDOdrJWK1W0+bNm6lNmzYUGhrKxaWnp1O9evVo7Nixb5SMFQoF3b17l6ZPn05BQUFlvs+Sl729PfXp04cOHTr0TqYavksKhYKOHz9ON27c4M5lZGTQ0aNHae/evbRv3z7utXfvXjp37hwVFRXx7lGRsWRcAeXl5dGFCxdowIABZZJe6ZeLiwsNGzaMrl279spJ+erVq9S/f396+PChdhHnr7/+oh49elBERATvfHFxMS1YsIDMzMx434ednR1t27aN96T/vv3555+8D6A2bdpQbm6udhhTCf3222+8v7eBAwdScXGxdtg7l5mZSUOHDi3T5NuiRQv6+++/tcOJiCg0NJTc3d3p119/JdIk41OnTpGdnR2NHDmSnj9/TnFxcTRv3jyytbWlbdu2ad/iXymVSnrw4AGNHz+e3NzcSE9Pr8znBDQ14b59+9K5c+cq7fvi77//Jn9/f5ozZw537u7du1S3bl2yt7cnZ2dn7mViYkLNmjWjhIQE3j0qskqZjPPy8ujhw4dlmkNlMhlFRkbSpUuX6ObNm5Samsorr2ykUindvHmTxo8fT/7+/mX6rUpednZ21L9/f/rzzz//s8agVCpJKpX+69O3UqkkiUTCi8nPz6dZs2aRqakp72vXqFGDtm3b9q/3ex/u3LnDazYPCgqiJ0+eaIcxlYxaraaJEyfy/uZ++OGHMl0n70tiYiINHTq0TNJr1aoVPXr0SDucIiMjqVmzZrwkW1hYSHPmzCEPDw9q1KgRNW3alDw8POj777+nzMxM3vUvk5OTQ+fPn6dRo0ZRjRo1ynwmACChUEheXl40evRounz5MonFYu3bVApPnjyhKVOmUL169UggENCsWbO4svz8fLp9+zZduXKFrl69Sjdu3KClS5eSi4sLzZs375UrKRVBpUzGv//+O7Vs2ZL3xy+RSOi3336jpk2bUoMGDSgoKIg+++yzVxpkUR5yc3PpwoULlJWVpV1E8fHxdPjwYdq+fTvdunXrtWuQEomEHjx4QAsXLqSmTZu+dLCXlZUVderUidatW0fPnz/Xvs0by8vLo5kzZ5apEXt5edL+/fsrRHNwYmIiBQYGct9btWrV6NKlS9phTCVTVFREnTt35n6vBgYGtHnzZu2w9yohIYEGDx7MqyELBALq1KkThYSE8GLFYjHdu3evzENyUVERXblyhbZv307bt2+ny5cvv1KTalZWFh06dIgGDBhA1apVK/MZUPK91KpVi2bOnEk3b96stEm4xN9//00TJ06kfv36kampKS8Za8vLy6NBgwZRv379Kl0LQKVJxiqViq5cuUzTpk0jNzc3cnZ2ptu3b3Pld+/eJT8/P/r666/p9u3b9Oeff5Kvry917NiRCove/YCiXbt2ka+vL928yZ9CFRwcTB999BF5enqSt7c3eXh40MKFC0mpVPLiXoVKpaLY2FjaunUrtWzZktePVvplZGREderUofnz59PTp0/fqhaRnZ1No0ePLtMH5e3tTUePHtUO/2AKCgros88+474/c3Nz+v3337XDmEomMjKS/Pz8uN+rvb09Xb16VTvsvUtOTqZBgwaVScjt2rWj6Oho7fC3lpmZSbt27aJ27dqRlZVVmfc8NDXhwMBAWrlyJUVERLzRQ7JCoaAzZ85QVFQU73xiYiJduHCBzpw5w71u3LhBBe9hgKxKpSKFQkFPnz4lDw8PmjlzpnYIkaYVZd26deTt7f3C5X4rukqTjGUyGX3//fdUp04dsre3J1dXV7pz5w5XvnfvXnJ1deW9UUeNGkVeXl6UkPju+g3Onz9P06ZNIw8PDzI1NaVr165xZVlZWdSzZ0+qX78+Xbx4kaKiomjw4MHk6elJYWFhvPu8ruzsbNq9ezd17tyZ7O3ty7wxS141a9akGTNm0O3bt1/pybu01NRU+vbbb8s0yfn5+dHx48e1wz8ouVxOU6dO5b5HPT09mjNnzls9iDAf3tmzZ3nT53x8fCgpKUk77INISEigvn378t4bAoGAunTpQk+fPtUOf20qlYri4uJo27Zt1KZNGzI0NCzz/gZApqam1LRpU1q5ciXFxcVp3+aVqNVqkslkdPHiRfL19aXt27fzypYtW0Y2Njbk5eVF3t7e5OXlRR07diyX/89XFRsbS15eXi9NxklJSdS4cWMaO3bsBxlT8LYqTTJWq9WUkZFBiYmJNG3aNKpRowYvGd+6dYtq165NEydOpAcPHtDx48epYcOG1Ldv39dOQq9KpVLR8uXLqWvXrhQQEEBWVlZ0/fp1rvz69evk7+9Pu3bt4s49efKE1q5dS8+ePePOvY2MjAw6fvw4ffXVV+Tu7l7mjVry8vT0pFGjRtGJEydeuohI6bSVnJxMI0eOLFP7rl+/Pp0/f75CJrn169fzHhyGDh1aZlwBU7msW7eON1aiffv2FarZNTo6mnr27FmmhtyzZ883riGrVCqKiIign3/+mT766KN/nZ7UpUsX2rx5M2960utSq9V07do1+vbbb8nHx4dMTU1px44dXLlCoaDRo0dTkyZN6MqVK3TlyhW6dOkSBQcHv9f31/Pnz1+ajNVqNa1YsYLc3d3pypUr2sWVQqVJxqX99NNPVL16dV4yLigooHHjxpGBgQF5e3uTnZ0dWVtb0+HDh3nXlreioiIqKCigNWvWkJ2dHa9m/Ntvv1GtWrXo119/pSlTptDQoUNp5cqVlJiYyLtHeSgqKqLbt2/TjBkzyN/fv8wbt+RlY2NDXbt2pe3bt1N6ejoVisV09twZWrt0Cf0yfz4dPXqY7j18SF988UWZGnHLli3LNMNXJCdOnOA14bVt27ZMXx1TeahUqjKDtyZPnlzhHgTj4+NpwIABvO9TIBBQjx49XqumqlQq6f79+zR16lSqVatWma6hkpetrS0NGjSIjh49+sIxKq9LpVLRqVOnaPTo0dS5c2eytbXlJeP8/Hzq0aMHTZkyhdRq9Xtd0Ke0f0vGCQkJ1KRJE+revXulrBVTZU3GS5YsKZOMz507Rz4+PtStWzfatWsXLVu2jPz8/Khjx47v5QN5y5YtZG9vz0vGixYtIhMTE3J1daVOnTpR165dydbWlvr27fvS2unbUiqVFB4eTosWLaKAgIAyCxWUvExNTanVxx/TuEEDaZGLE/0B0AGAfrKyoI9rehK0pm80bNiQ10dfET148IA8PT257zkgIIDCw8O1w5hKoiQJlPw+BQIBbdq0STusQnj+/Dl16dKF957R09OjPn36/Of0GoVCQQ8fPqQJEyaQl5dXmfdqycvGxoaGDBlCZ86cKfe+WpVKRSqVioKDg8nDw4M3+jspKYlatmxJzZo1o/79+1OnTp1oypQp7/299bJkrFar6cyZM2RmZka//fYbr6wyeTerrH8Ax48fh0qlwuLFizFo0CBMmTIFY8eOxfXr1xEcHKwdXu5etN+GWCyGRCLBiBEjsG/fPvzxxx+YPHkyzp49i0uXLmmHlwuhUIiAgADMnDkTx48fx+rVq9GmTZsyuyaJxWLcuXIFNXbvwfDkNPQA0BXAyLwCDHsWAyfN/49AIEC7du2wYcMGNGnShHePisbOzo63OUR2djZvMXymcsnNzeXtAmZpaYmAgABeTEXh6emJ5cuXo1u3btyOTmq1GgcPHsSUKVPwd1gYnicmIj07GyrN1qQ5OTk4e/YsxowZg27dumH16tV4/vw57776+vrw8/PD+PHjcejQIWzcuBEdOnQo9w1kSja70dfXL7MjVUFBAQoLC5GTkwMbGxu4ubnh0KFDGDlyJCIiInix7xIRQS6XQ6lUljkfHBwMU1NTNG7cmFdWmVSZZKxQKGBiYsLbUs3R0RH6+vrcTi/vm6mpKRwdHdGpUydYWFjA3Nwc7du3h7m5OeLi4rTDy52XlxfGjh2Lbdu24ddff0Xv3r1hbW3NlbcRAF8CMAOg0LxEmqTcWxPTvn17rFy58pW2UvzQLC0tUb16de44JycHiYmJvBim8sjIyEB6ejp3bGtry9u7uqLx8/PD0qVL0alTJ+4cEeHEkSNYP3w4jg8bhl3fjsHm1auwbedOjB8/HsOHD8fmzZtf+Hdau3ZtzJw5E9u3b8fSpUvx8ccfw8jISDusXL2oUuHg4ICZM2di27ZtWLVqFVavXo0FCxbg2bNnOH/+vHb4O2Nubo7PP/8cderU4Z1XqVSwsbHB8OHD4ebmxiurTCplMlar1VCpVLw/nEaNGiEhIQHr1q1DeHg4rl2/hi1btqBGjRr/uQ3gu+Lj4wNDQ0Okpv2/dpaRkQGlUgl7B3te7Lvk5uaG/v37Y+vWrThy5Ai+/vprWDs4oB4BFlobiqsBGANoDKBth/ZYtWoVgoKCSkVUXGZmZnB1deWOFQoFb1tHpnKJiYlBQUEBd+zh4QEbGxteTEXj5+eHX375BV26dAEEAlgAmKBQ4Ns7d9Dn/Hl03rcfNGMmFo0ehT179iApKYl3vUgkQr169fDzzz/jyJEjmDNnDpo0aQJjY2Ne3PtkYmKCjh07olmzZhBp9jNu1aoVnJ2dkZSU9N4qO/b29lixYgW++OIL3nmRSMTtm25lZcUrq0wqZTK2traGu7s77ymxR48e+Oabb3DgwAEMGTIE34z+Bjk5OZg/fz68vb15178LarUaSqWS94DQoEGDf5qvli3H0aNHcfz4caxatQrVq1dHq49a8a5/HywsLNC6dWts3LgRK1auhJ6NFRSaTcRLUwKQGxtj2Ndfw9/fX6u04hIKhXB3d4ehoSF3LioqqkyzFlPxERGio6MhkUi4c76+vu+8ZlgevL29sWjxYjRv2gyDAUwD4APAWrNf8CCZHF9JpBCWusbExAStWrXikvDUqVPh6ekJobB01PtHRLh06RKGDBmCu3fvcuejo6ORm5uLGjVqvLfvUSAQwNDQEPr6+tpFMDQ0hIGBgfbpSqVSJuPevXtj27ZtvCRrY2ODWbNmYd++ffjhhx+wbNky7Nu3Dz169OBd+644OTmhSZMmvGZyd3d3LFiwALa2tvjpp5/w008/wdjYGEuWLPmgzW0ikQifdekCSfOmCAegr0nIAk0zdQKAEG8v1G9Q8ZumtXl6esLExIQ7fvr0KYqKingxTMUnlUoRHx/PPdyKRCLUrFmzTH9mReUXEIAODeqhj6alSaFpdVJp3mOdAXgDsLC1RY8ePbB+w3rs3r0bEyZM+KBNrUQEqVTK1XYFAgHs7OwQFhaGyZMnY9u2bdi8eTNmzJgBBwcHtG3bVvsWzJvSHtHFvJni4mLKzMx84a5F2TnZ9OjRI3r06FG5TEUoL9euX6PvfGvSWYByASoA6DZA0xzs6MCf+3jzjiuLv//+mzci1cnJibc7DlM5pKen06effsobSfy+9jAuD4USCc0f9jWFASTWvLdKXmKAIgH6qmZN2rX/zwq1bGN0dDQNHz6czp8/z52Ty+V0+vRp6tatGzVp0oRatmxJgwYN4u2exLw9Ab2ox57RCQTg+rWruLh5E9QhDyFQqqDw8kWzoV+jc7du0H9PzU/lKTUtFb179catW7cAAMbGxtizZ897ayFhykdERAT69euH0NBQQNPKtG/fvgo/or+EQq3Gr3Nmw3fRYrTT1IxLPmgNANwUCHBtyCDM2LINhhXofaZWqyGXy6Gvr1+mObigoADp6ekwMDCAo6NjpegyqEwqZTM1Uz4EAFq1ao1pW7ah38ET6H3oOKbu+QOf9+xZKRMxANja2KJatWrcsVQqxdOnT3kxTMUXHx+PtLQ07tjd3R2OTo68mIpMpKeHJp0747qPB6I0H7RCzSsZwI1qDqjfu0+FSsTQTHEyMjIqk4ihGXPi7e0NNzc3lojfAZaMGZgaGqKWtzdq+/nDxvz/fd6VkUgk4g06KxkIJJfLeXFMxZaQkID8/HzuuEaNGrC14c+Vr+gaN26KJvMX4o9AXxwF8BjAGQDb3VzgPmMmOrbvqH0Jo8NYMmaqFIFAgLp16/Ke7KOjo3kf7EzFplKpEBMTwz1ACQQCuLq6wtTUVDu0QhPpC9Gj3wAM/PMQclcsx4lvv0XikiXo/OdBDBj9LQxEIu1LGB3GkjFT5Xh6evJWKMrMzERmZiYvhqm4pFIpb364kZER3N3doadXOT+uAgNqYex3kzH/l18wYfp0NG3SFPrCyvn/wrw77C+CqXIcHR15K3FlZWUhJSWFF8NUXHl5ubwV6kxMTD7odJ/yIqpg/cNMxcKSMVPl2Nra8pJxUVERkpOTeTFMxZWWlsZbk9re3p63shrDVEUsGTNVjkgk4i0II5fL8ezZM6jU72fZPubtxMcnIDs7mzt2dnaGi4sLL4ZhqhqWjJkqRyAQIDAwkFumj4jw9OlTyKQy7VCmAnr8+DHv2MvLC2ZmZrxzDFPVsGTMVEkeHh680bdpaWm8TQeYikmlUvGSsUAggI+PDy+GYaoiloyZKsnR0ZG3t3FGRgYyMjJ4MUzFk5mZyesvNjAwYMmY0QksGTNVkrW1NRwd/79iU3Z2NlJT/7+VJVMxJSUl8aahubq6wtPTkxfDMFURS8ZMlWRhYcH7EC8qKmJ7G1cCsbGxvO4EV1dX1KhRgxfDMFURS8ZMlWRsbAwPDw9uyz2ZTIbY2Nj3thE68/qICDExMZDJ/j/QrmbNmmzwFqMTWDJmqiSRSARXV1fegvbx8fEoLi7mxTEVh0QiQUxMDPfApKenB19f3xduWsAwVQ1LxkyV5erqCisrK+44Pj6erVFdgeXn5/MWZzExMYGHhwcvhmGqKpaMmSrLxcWFl4xTU1N5i0kwFUtOTg4SExO5YxsbG9ZfzOgMloyZKsvOzo43ojo3NxfxCfG8GKbiSEtL442kdnBw4O1NzTBVGUvGTJVlYWHBW9O4qKgI8XEsGVdUcXFxyMvL447d3d1hYVG599dmmFfFkjFTZRkZGfH6HNVqNZ4+fQqVUsmLYz48IsKzZ88gkUi4czVr1oSJiQkvjmGqKpaMmSrN29ubW6MaAEJCQiAuFvNimA9PLpfztk3UnprGMFUdS8ZMlebt7c1bozo8PBzZ2Tm8GObDE4vFeP78OXdsZmZWJfYwZphXxZIxU6U5V3Mus7dxfDzrN65oklOSecuV2tjYsMFbjE5hyZip0mysbXh7GyuVSkRHR/NimA8vKjIKWVlZ3LG7uzvs7e15MQxTlbFkzFRpJiYmqFmzJndMRIiOjoZarebFMR9WZGQkpFIpd+zu7g5rG2teDMNUZSwZM1VayX64BgYG3Lm4uDgUFRXx4pgPRy6X8/qLhUIh3NzcYGhgyItjmKqMJWOmyvP19YW5uTl3nJiYwFbiqkDy8/Px7Nkz7tjQ0JDXtcAwuoAlY6bKc3Jygq2tLXeck5OLjIwMXgzz4aSmpvIGb5mbm7OR1IzOYcmYqfJsbGzg6vr/NY5zcnKQkpLCi2E+nOfPn/N+Hy4uLiwZMzqHJWOmyjM3N4eLy/+nN4nFYiQlJYGIeHHMhxEXFwex+P8LsbCR1IwuYsmYqfIMDQ3h6ekJPb1//txlMhliYmIgl8u1Q5n37EVTzYKCgtjKW4zOYcmYqfIEAgFq1qwJQ8N/Rueq1WrExMTwptIwH4ZYLEZkZCR3rKenh6CgIF4Mw+gClowZneDi4sIbUZ2amor8/HxeDPP+ZWZm8gZv2dra8jb3YBhdwZIxoxOcnJxgZ2fHHSclJfFWfGI+DO3fg7u7O28PaobRFSwZMzrB1taW9yGfk5OD5ORkXgzz/iUkJPAWYKlRowasrKx4MQyjC1gyZnSCmZkZb1lMuVyOp0+f8mKY90upVOL58+dc371AIIC3tzeMjIy0QxmmymPJmNEJhoaG8PDw4EZUl6xRzXw4EokE8fHx3BQzIyMjeHh48PafZhhdwZIxoxMEAsE/6x1rRlQDQGxsLAoKCnhxzPuTl5eHxMRE7tjCwgI1avx/cRaG0SUsGTM6w93dnbcsZnx8PG8kL/N+ZWdn85Kxra0t28OY0VksGTM6w8XFBdbW/9+WTzsZMO9XcnIycnJyuGNHR0c4ODjwYhhGV7BkzOgMa2truLq6cseFhYWIiorixTDvT1RUFPLy8rhjd3d3NpKa0VksGTM6w8zMjLeghEKh4G3dx7w/KpUK0dHRUKlU3Dl3d3eYmJjw4hhGV7BkzOgMPT09+Pn5cSOqodmkoPQ8V+b9kEgkvFYJtocxo+tYMmZ0Sq1atXi1r7i4OGRnZ/NimHevoKCA1ypRMvWMYXQVS8aMTvHz8+ONqE5MTERaWhovhnn3oqOjkZmZyR07OTmhevX/b3PJMLqGJWNGp1hZWcHd3Z07lkgkSEpK4sUw715oaCiKi4u548DAQN5Id4bRNSwZMzpFJBLxlsWUSqWIj4/nxTDvllqt5m2bCAC+vr4wNTXlnWMYXcKSMaNThEIhPDw8uM3rVSoVYmNjoVAotEOZd6SoqAgxMTHcsYGBAe8BiWF0EUvGjM7x8vLi7W0cGxuLwsJCXgzz7uTk5PAWW7G0tGSDtxidx5Ixo3Pc3Nx4/ZNJSUm8laCYdyshIYH383ZycmJrUjM6jyVjRufY2tryll3Mzc1FRkYGL4Z5d2JjY3nJ2N3dnbfXNMPoIpaMGZ1jZWXFq4nl5OSwEdXviVqtRmxsLCQSCXfO29ub123AMLqIJWNG55iZmcHZ2Zk7lkqlSExMhFqt5sUx5a+4uJg3el0oFMLLy4sXwzC6iCVjRueUbGJvYGAAAFAqlYiKimIjqt+D/Px8xMbGcsdGRkYsGTMMS8aMLtLT04OHhwcMDQ25czExMbymU+bdyMrKQkpKCnfs5OTE9jBmGJaMGV1Vo0YNWFhYcMcpKSm85RmZdyM1NRVZWVnccfXq1dkexgzDkjGjq6pVq1ZmjerU1FReDFP+YmJieHO6XV1deQ9FDKOrWDJmdJKtrS1cXFy446KiIjx//pwXw5QvIkJ0dDSUSiUAQF9fH56enrzuAobRVSwZMzrJwMAAAQEB3DER4fHjx7wYpnxJJBLeA4+xsTE8PT15+0szjK5i7wJGJ+np6cHHx4d3LjIykqu1MeUvNzeXN5/b0tKS1zrBMLqMJWNGZ3l6esLExIQ7Znsbv1vp6em8Nam1uwoYRpexZMzoLBcXF7i6unLH6enpSE5O5sUw5ScqKoo3eMvJyQn29va8GIbRVSwZMzpLe4OCoqIiJCQk8GKY8kFEePjwIWQyGXfO29sblpaWvDiG0VUsGTM6y8zMDJ6entyxQqFATEwMiIgXx7w9qVSKqKgo7lhPTw/e3t7Q19fnxTGMrmLJmNFZIpEINWvWhEAgAACoVCrExcVBLpdrhzJvKTs7m9dfbGRkBH9/f14Mw+gylowZnaY9iCspKQl5eXm8GObtJScn80ZSm5ublxnNzjC6jCVjRqe5urrCxsaGO05ISGDLYr4DsbGxKCgo4I69vLx4K6AxjK5jyZjRaTVq1IC9kxN3nJaRgbT0dF4M83YIQGhEBKRSKXeuQYMGvBaJ0hQKBSQSyUvnfKtUKkilUqhUKu0ihqm0WDJmKo3c3Fxcu3YNBw8exIULF146DYmIcOPGDTx48OA/9yiOT0yArVyGBgAaADAuLER0qYFGzNuRyGQ4f/o0ov86heYAggAYCwRwe8HKW1KpFH/99Re+++47fPXVV5gyZQpOnz7NjcBWKBQ4ceIEpk+fjtGjR2PWrFm4cuXKS5M2w1Qmwnnz5s3TPskwFU1sbCwmT56MjRs34uHDhzh+/DguXryImjVronr16twgLAC4cOECRowYgeLiYrRt2/alI3YvX7qIUxPHo3doKEapCb0A1FMoEJqSBMt69VGdLUjxVtQAdm9Yj2czpuOLp1H4EsDnADwAJBoZok7bT2BuasrFHzlyBJMmTYJCIYebmzvCw8Oxbds2ODo6onbt2vjzzz8xYcIEEBGcnZ1x69Yt7N+/H4GBgbxR8QxTGQmIzeNgKjiVSoWlS5dixYoVmDFjBjp37oyIiAhMnToVzZo1w4YNG2BlZQUAePbsGb788kvcvn0bI0eOxOrVq2FkZKR9S6RkZODXIQPQ5cxF1Ncquw/gUId2aDTkaxiJRGyq0xsQ6OkhKSkJST8vwbcp6XDUNFcLACgA7BfpQ7JoAUZPmgqRvj5kMhmGDBmChIQE7N69C+7uHoiOjka/fv1gb2+PzZs3Y8SIEVAoFNi1axeqVauGR48eoVevXhgwYAAWLlxYpqbNMJUJS8ZMhZeXl4dRo0ZBpVJhx44dMDU1BRFh0qRJOHv2LE6ePAkvLy8UFRXh++nfI+RxCHJyctCiRQusWbPmhcn4ytUreNi3N75Jz0bpRk6BJmlMBbDD2Bh6pWrczOvRVyqxSy5He00CLiEEkA5gc/vW+Hbnn6jm6IiioiKMHz8eQUFBmDRpEqBptu7fvz8SEhKwc+dObNq0CY0aNcKXX34JAHjy5Am6d++OPn36YMGCBSwZM5UbMUwFJxaL6ciRI3Tp0iXuXE5ODnXp0oWaN29OycnJRET0+++/U5MmTejcuXPUpUsXGjZsGEkkklJ3+r/jR47QVgsLkgBUoPWSADT7n5zMXm/xsgDoFkDFWj/fIoBSAJrTqAFFxjwnIiKVSkVJSUmUk5NDREQKhYIOHTpEzs7O9PXXX5NcLieVSkVERI8ePaIlS5ZQ27ZtKSAggG7cuMH73TJMZcQeJZkKz8TEBN26dUObNm0ATY1oypQpCA4OxhdffAEnJyc8evQIv//+O/r3749WrVpBrVZDIBC8tLZk6+SEDEsjqDS14RJ6AKQAnpU6x7yZQgBRWj9faH7G+QDkTrawMv9nOUw9PT24uLjA2toaycnJWLJkCaZNm4batWtj/PjxEIlE3O8yLS0NN27cQHh4OAoLC5GZmcm6EphKjzVTM5VGYWEhDh06hFWrVqGoqAiTJk3CsGHDIBaLMXToUCgUCvz2228wNzdH7969Ub16daxYsQK2trZlknJuQQGWjxmN+nv2oqMmQZBm0NEFAbCpTm3oVXeFgL093phMrYZTyCN8n5wGL83PFwAkADYaGaL6xvUYPPhrlPQEKBQKXLx4EfPmzUNSUhIGDx6MCRMmwNHRESqVCjKZDAaGBhBAAKVSifDwcIwcORIODg7YuXMn7OzsSn95hqlUWDJmKoW0tDTMnTsXZ86cQYcOHTBixAg0atQIAHD9+nV069YNNWrUQFBQEJRKJS5evAhjY2N07twZM2fO5O3OVOJxyGPsm/E9vC5egr9MAQIQoidAzCdtMHD5Snh7erEa1xsSCARQq9U4/9cphC5dhDqhEaimJogB/AUAQ77EvPUbYVZqrvHJkyfx/fffo2bNmpg2bRpatGjBlUVERGDjxo3o1asXWrduDeCfKWxTp03FtavXcODAAbi5uXHxDFPZsGTMVHhKpRKLFy/Gtm3b8OOPP2LQoEG88uTkZBw/fhwymQxqtRpqtRqbN2+GmZkZvv76a/Tt2/eltaZbd+7g6y/6QJKQCAIgdHTEmq1b8VmXLtqhzBtQE+HRo4f4ecZ0PDh3AVIAyQDmzp+PeXPmcHFisRgDBgxAZmYmVq5cCXd3dyiVSqjVahgbGyM9PR19+/ZF7dq1sWrVKtjY2CA6Ohpjx46FjY0Ntm3bxnaAYio1loyZCi8xMRF9+/ZFWloaBg8eDGNjYy7pOjs7o0ePHrC2tubilUolunTpAmdnZ2zYsAHGxsa8+5V28uRJ9B8wAEWafXabtWiB3Tt3snmr5WzNr2sxYdJEQLNqVocOHXD06FFupHtMTAzatGmD/Px83raWarUa9erVw/Lly7F161YsWbIE9evXh7u7Ox4+fIiCggKsXr0a3bt35801Z5jKhi36wVR4GRkZePDgAQoLCxEdHY2wsDCEh4cjJCQEYrEYrVu3LlMrun//PqpXr46PPvoIQqGQV1aCiLB3716cP3eOO9e5Uyf07t0bIpGIF8u8HZlMihPHjkEikQCa/v/+/ftz88NlMhmMjY0RFBQEHx8f3isoKAhNmjRB8+bN4eLigsLCQkglUgQGBmLmzJno0KFDmTEBDFPZsJoxU+HJ5XLk5uZCoVCU6cM1MDCAjY1NmeSZlZUFoVAIKyurl9aY8vPzMWjQIJw8eRIAoK+vj9WrV2PMmDHaocxbSkpKwueff45Hjx4BAAwNDbF//358/vnn2qH/SaFQQKlQwsjECIIyY7UZpnJij5NMhWdgYABHR0dUr14dNWrU4L0cHR3LJGIAsLOzg7W19UsTMQDExcUhLCyMOzY3N0dQUBAvhikf9vb28Pb25o5lMhmXmF+XSCSCsYkxS8RMlcKSMaOzQkJCEBcXxx17eXmxDe/fEUNDQzRp0oTXnBwSEsLbVpFhdBlLxoxOUqlUuHPnDu9cvXr12B6771CDhg1gbm7OHcfGxiItLY0XwzC6iiVjRifl5OTg3r173LG+vj7atm37r83azNvx8vTizQVOTU1FbGwsL4ZhdBVLxoxOiomJQVJSEnfs4uKCWoG1eDFM+bKzs0PNmjW54/z8fDx//pwXwzC6iiVjRucQEUJCQpCbm8udCwwMhGuNsqt0MeXHyMiIN0BOIpEgLCwMMpmMF8cwuoglY0bnSCQSPH78mJvzKhAIUL9+fZiW2uieeTdq1arF+zlHRUWxQVwMw5Ixo4uys7Px9OlT7tjc3Bx16tSBvr4+L44pf56ennB0dOSOY2JikJqayothGF3EkjGjcxITE3l9lc7Ozry+TObdqVatGtzd3bnj1NRUPHvGNqxkGJaMGZ0TFhbGm1JTs2ZN3nrIzLtjZWUFPz8/7lgqlSI8PJwXwzC6iCVjRqeo1Wrcv38fUqkU0PQX16tXj1sjmXm3jI2N4e/vz1s1LSQkhOu/ZxhdxZIxo1OKi4vx8OFD7rhkcwK20cD74+vry9tl6+nTp7xpZgyji9gnEKNTQsNCER0dzR07ODggICCAF8O8W97e3nBycuKOk5KSeL8ThtFFLBkzOuXG9Rso1OxdDACBgbVYf/F7Zm9vzxswV1hYiIiICF4Mw+galowZnVFcXIzbt29z2zD+019cv8xeyMy7ZWpqitq1a3PHKpUKjx8/Zot/MDqNJWNGZyQnJ+PJkyfcsYWFBRo3bsyLYd6Phg0bwsDAgDt+8OABMjIyeDEMo0tYMmZ0RkREBFJSUrhjNzc3tn/xBxJUOwjVqlXjjpOSknjbWTKMrmHJmNEJarUajx8/5vUX165dm/UXfyD29vYIDAzkjkvWqWYYXcWSMaMTCgsL8ffff0OtVgOa/uJGjRqxKU0fiJEhf9MIpVKJJ0+eQKFQ8OIYRlewTyJGJ6SkpPD6i21sbNCgQQNeDPP+lCy2Ym5uzp178uQJsrOzeXEMoytYMmZ0wvPnz3kbEnh5ecHVlW2Z+CF5eXnxNo1ISkpCcnIyL4ZhdAVLxkyVR0R48OAB118sEAgQFBQEWztb7VDmPXJycoKnpyd3nJ6eztvAg2F0CUvGTJVXVFSEx48fc/3FxsbGqFu3LoyNjLVDmffI2toaXl5e3HFRURGePXvGzQNnGF3CkjFT5aWmpiIyMpI7trW1hZ+fHwQCAS+Oeb+MjY0REBDAzTdWKBQICwvjNvFgGF3CkjFT5UVGRiIxMZE7dnFx4dXImA/Hz8+PN4grMjISWVlZvBiG0QUsGTNVGhEhODgYRUVF3LlatWrxNipgPhx3d3fe7+LZs2dsBydGJ7FkzFRp+fn5uHPnDtcPqaenh8aNG8PYmPUXVwTOzs5lNo0ovcUlw+gKloyZKi0uLg4hISHcsUgkQr169XgxzIdjbGzMW4mLiHD79m1eDMPoApaMmSrt3r17vIUkateuDW9vb14M8+Ho6ekhMDAQIpGIOxceHo70/7V33+FRlenfwL8zk2TSy0wK6YX0nkCQILbV/YmLq6KIDQVWFBdFFxGkqESqDQSlLKzCUqXYYQUpr0qJUkJID+m9l0kmM5NMe94/DEeeAd1VQTIn9+e6culz5j6HXWacb855WnMzV0eI2FEYE9EyGAzIzs7mpsrceuutcHV15erI9RUTE4Pg4GChXVtbi7KyMq6GELGjMCai1drairy8PKHt6OiIESNG0HrUA0xwcDDXb9zd3Y2CggKuhhCxo28lIlqVlZXclCY/Pz/ExMRwNeT6c3FxQVxcnNDW6/UoKCiAyWTi6ggRMwpjIloFBQXchvWxsbHw9/fnasj1J5PJkJiYyPUbl5aW0nxjMqhQGBNR0mg0yMvLhU6nA/rXo05KSqL+4gEqOTkZ3t7eQrukpIQ2jSCDCoUxEaXOzk7k5Pw0pcnZ2RmJiYnUXzxABQUFISQkRGi3t7ejqqqKqyFEzOibiYhSTU0NSktLhTb1Fw9szs7OiI2NFdpqtRqFhYVcDSFiRmFMRKmwsJDrcxw6dCj1Fw9gNjY2iI2NFfqNTSYTCgsLhW4GQsSOwpiIjtlsxokTJ2A0GoH+/uLU1FTqLx7gYmNjoVAohHbxhWJuwRZCxIzCmIhOW1sbtwSmo6MjUlJSqL94gAsMDISvr6/QbmxopH5jMmjQtxMRndLSUm4FJ39/f0RFRXE1ZODx8vLiFv9ob2/n9qEmRMwojInoHD9+nNsyMSoqCoGBgVwNGXjc3Ny4dcMNBgPy8/O55UwJESsKYyIqGo0G33//PfcFnpaWxm1gTwYmW1tbxMXFcdtb5ubmQqVScXWEiBGFMRGV6upqbkqTq6sr0tPTIZFIuDoyMEVHR8PDw0Nol5aWcu8nIWJFYUxE5cKFC2hsbBTagYGBSExM5GrIwBUWFsZNQWtoaKBNI8igQGFMRMNsNiM7OxtqtVo4NnLkSCiVSq6ODFzu7u4YNmyY0DaZTDh//jxXQ4gYURgT0bi49d7F3X5kMhmGDRsGmUxmWUoGKIlEgvT0dO5YQUEBNBoNd4wQsaEwJqLR0NCA4uJioe3j48NtzUesQ1xcHDw9PYV2VVUVKisruRpCxIbCmIhGeXkZ6urqhHZISAiCg4O5GjLwBQYGIjo6Wmi3traipKSEqyFEbCiMiSgwxpCfn4/u7m7hWFxcHLy8vLg6MvC5u7tzYazRaFBSUkLzjYmoURgTUVCr1Th16rTQdnBwQEJCAhwdHbk6MvDZ2dkhNjZW6Os3mUwovlBM/cZE1CiMiSg0NjYiPz9faCsUCiQkJHA1xHpERERwm0aUlZahpaWFqyFETCiMiSgUFBSgtrZWaAcEBCAyMpKrIdYjMjKSm29cVVXJvb+EiA2FMbF6JpMJmZmZ0Ov1wrHo6GjqL7ZiXl5eCAkJEdqdnSqUl/+0+QchYkNhTKxeR0cHMjMzhbZEIsFtt90mbFRPrI+rqyu305ZWq0VeXh4AGsRFxInCmFi9qqoqbuqLUqlEUlISV0Osi0wmu8KmEXnQanVcHSFiQWFMrF5eXh46OzuFdkxMDEJDQ7kaYn1iY2Ph7u4utEtLS7l1xwkREwpjYtX0ej1OnToFs9ksHBs5ciRcXV25OmJ9/P39uV+qWlpakJOTw9UQIhYUxsSqtba2orCwUGg7OjpiZPpI2jJRBBQKBbf4R19fH7Kzs7kaQsSCwphYtfLyclRVVQntgIAAREf99AVOrJednR3i4+Mhlf70NfXDDz9Aq9VydYSIAYUxsWqFhYVob28X2lFRURgyZAhXQ6xXfHw81+VQXl5O/cZElCiMidXS6XTIycmBTvfjCFuJRIK0tDS4ublZlhIrFR0dzfUbt7e3909xIkRcKIyJ1ero6OC+mF1dXREXF0f7F4uIr68vYmNjhXZPTw83RoAQsaAwJlaruroaFRUVQtvf358b8EOsn42NDYYNGya0zWYziouL0dvby9URYu0ojInVKiwsRGtrq9AeOjQMfn5+XA2xfvHx8bC3txfaFRUVtGkEER0KY2KVDAYDMjMzYTQahWPx8QnUXyxCwcHBGDp0qNCuqqrinogQIgYUxsQqtbe349ixY0Lb2dkZw4cPp/nFIuTj44OIiAih3dHRgbIy2jSCiAuFMbFKeXl53BQXf39/xMfHczVEHJycnBAZGSn8otXb24uSkhIwRptGEPGgMCZWhzGG77//nlv8ISYmBkFBQVwdEQcbGxtERUXB0dER6H//i4uL0dXVZVlKiNWiMCZWp6urC1lZWUJbJpMhPT2dG+RDxCU8PJzbn7qwsJAGcRFRoTAmVqempgalpaVC293dHTfffDNXQ8QlNDQUgYGBQruxsZH6jYmoUBgTq1NWVoampiahHRYWhrCwMK6GiItSqeTe497eXuTm5nI1hFgzCmNiVcxmM3Jzc6FWq4VjCQkJUCgUXB0RF0dHR8TExAhts9mM7OxsWvyDiAaFMbEqarUa2dnZwvxiOzs7pKWlwcbGxrKUiExqaiocHByEdl5eHhoaGrgaQqwVhTGxKo2NjVx/saenJ+Li4rgaIk5RUVHcIK76+nqUlJRwNYRYKwpjYlVKSkpQXV0ttENDQxESEsLVEHHy8vLC8OHDhbZarUZOTg5XQ4i1ojAmViU7O5ubXxwXFwelUsnVEHFycHBASkqK0L4439hgMHB1hFgjCmNiNVQqFTe/2N7eHklJScJiEET8UlNTufe7oKAAHR0dXA0h1ojCmFiN6upqbi9bhUKBhIQEroaIW0REBHx8fIR2U1MTqqqquBpCrBGFMbEalqNng4KCEBkZydUQcfP29uYG7LW2tiI/P5+rIcQaURgTq2A0GnHu3DnodDrhWEJCAvUXDzIuLi5cGPf29uLChQvcVpqEWCMKY3LVGI1GFBYW4vDhw8jMzORWyUL/gJva2locPXoUR48eRV1dHff6L1F1deFEZqbQvrgeNc0vHlykUimio6Mhl8uFYyWlpejp6eHqLJnNZlRVVeHo0aP49ttvUV1dze361NbWhqKiIuGnsLAQZWVlMJlM3HUIuVYkjPYhI1eBWq3GmjVrsH37duEuJSgoCPPnz8dtt90GAPjqq6/w9ttvo6mpCWazGQEBAVi4cOF/XVdardViz57dmP3cDHRrNDAB8BkyBN99+y2ioqIsy4nInTx5Eg898gjqa2shBRAxNAzLVqzAPX+9BzbSy+8vGGP46KOPsHr1aqhUKkilUigUCjz//PMYP348AGDNmjXYuHEjbG1tgf5fLENCQrBz5064urpaXJGQq4/CmFwVn332GaZOnYo777wTU6dORV1dHRYvXozAwEB89NFHMBqNuPfee+Hi4oL58+dDr9djwYIFiIqKwqZNm+Dk5GR5SQBAQ2MjNi9eBOOePQhs74AewNcAWlNT8PnhI/CkZTAHnfN5uXj+0UcRlV+AGwAwiQSlvj4YMv3vmDR9BpQeHlx9aWkp/vznPyM0NBQvvfQSJBIJ3nzzTbS1tWHfvn3w8/fDjOdmoL6+Hg888ACkUimMRiPc3Nxw7733cnfhhFwzjJDfyWg0snnz5rH4+HhWVVUlHF+2bBkLCAhgmZmZbP369czf358dPXpUeH3//v3snXfeYV1dXcKxS3Wp1WzRM0+xLRKwNoDp+n/qAbbc1Zlt+dcGZjQaLU8jItar72PrFr7CPrS3Y+0A6+3/TDQCbI2DnK1buoTp+vq4c7Zu3cp8fX3ZwYMHhWOffvop8/HxYfv27WMdHR3snnvuYRs2bODOI+SPdPkzHUJ+g/T0dMyZMwe+vr5A/6NBlUoFiUQCxhgyMzMREhKCzs5OLF++HIsWLYKNjQ2mTZv2s48BT2dlwfDpp/gLA+QADP0/7gAe6O5BwZbNaKA9bQeVyopKNH/0Ef7cq4c9AH3/Z8INwF90fej+4nPU1NRw54SFhWH+/PncgiFdXV0wmUywt7eHWq1GQ0MDMjMz8dprr2H27NnYtWsXNBoNdx1CriUKY/K7yWQyjB07Fo8//jjs7OzQ09ODtWvXYvPmzbjjjjsQEhKClpYWFBYWYsmSJThy5Ai++OILTJ06Fdu2bfvZQTIXiouR1NkNJwCX9qWYAXgD8K+uR6XFFy8Rt+rKSnjUNULZ/zm4yATAA4B3XSOa6+sveQUYNWoUnnvuOXh7e0Ov12Pf/n14++23kZycjJSUFLS2tqKpqQkHDx5EdnY2Tp8+jRkzZmD27NkUyOQPQ2FMrgpp/8CZzMxMPPvss1i+fDnGjBmDBQsWwMnJCTqdDkajEZMnT8aePXuwa9cuJCcnY/369WhsbLS8HNC/I5NOIrE8DPSHs0EmhdzOzvIlImJ2cjkMMikXxAAg6Q9nvUwKm/5BWMJr/Z+hoqIizJ07F9P/Ph3BwcFYunQplEolXFxcMHnyZGzYsAG7d+/Gnj178PDDD2Pr1q347rvvuGsRcq1QGJOrQqvVYv369cLgrZUrV2LNmjUYOnQopFIpZDIZ4uLi8OCDD0KpVCIiIgL33XcfOjs70dzcbHk5AEBKSgpyg/zRDEB2yXEZgAsAWhLiEEabRAwq4ZGRUMfFocbiM2EDoA5Ac1QEAi0+E4wxfPHFF/jb3/6GkydPYs6cOdi0aRNGjBgBAAgJCcH8+fNx7733wtHRET4+Pnj44Yfh6OiIoqIi7lqEXCsUxuSqOPj1QSxduhR/+ctfsH37djz00ENCX7CTkxP8/f2h1Wq5TR60Wi1sbGy4PWovlZyYiMgZz2OTgwMaANgDsAOQD+CjoACMmfkSvCxGzhJx8/fzQ8zT07Ddw034TNgCKAGw29cTCU89Dd8hQ7hzCgsLMW/ePAQGBmLHjh2YMWMGhvTXMMZw4MABLF26FO3t7cKxzs5OGAwGuLm5cdci5FqRZWRkZFgeJOTX0Ol0ePvtt1FZUYkJEyZArVajsPDHxRNqamrg5eUFV1dX7Ny5E319ffD390d+fj7ef/99xMXFYeLEiVecPiKVSBCVkIRWf1/sra/B143N+FwCvAugNzkFs2bPpsfUg4xEIoHGYMDS/f/BFyoV8iTAUXs7nEsfgVuXvYUxf70HthYLwWzYsAFfffUVxo0bB7lcjsLCQhQXF6O0tBQKhQLl5eVYsmQJDAYDhgwZguLiYrzzzjvQ6/WYN28erfJG/hA0z5j8bp2dnZg1axZOnjwJ9K929OM/TfD3D8C7776LpKQkrFmzBjt27IBcLoder4e/vz9effVVpKamWlzxcgePHMH9DzwAXXc3AMA/IADfffsthg4dallKRG737t3425NPQts/uGrkTTfhg3/9C3FXWADGZDbhtVdfw969e/tH9pvBGMCYGQ4Ojli1ahXS0tKwatUq7NmzBwqFAnq9Hvb29pg1axb++te/Wl6SkGuCwpj8bkajEbW1tejpUfcPpbmIwcbGFkFBQXByckJvby9KSkpQVVUFZ2dnREVFwd/f/5L6n9fU1IS7775b2ELRxsYGO3bswIQJEyxLiYgxxpCRkYFFixYJx5599lmsXLkSdld4SsIYQ319PTo6OoSBXP2vQCqVIiAgEG5ubtBoNCgqKkJDQwMcHR0RFhaG0NBQi3MIuXYojIlVMBgMeOGFF7B+/Xrh2D/+8Q+sWLFCGMlNxK+7uxuPPfYY9u/fD/SPuH/33Xcxffp0y1JCrAp9ixGrYGtri4SEBGHtYPQPzFGr1VwdEbfm5mZuT2tPT0/a05qIAoUxsRqJiYncYJrKyspftfMTsX75+fmov2RRj8DAQERERHA1hFgjCmNiNUJCQrgBW62trTQPdBBhjOHs2bPo6+sTjsXFxcHT05OrI8QaURgTq+Hj44PExESh3d3djcLCwp9dTpOIi1qtRuYle1pLpVIkJSXRntZEFCiMidWwsbFBUlISZLIf114ym80oKChAd/90JyJutbW1yMvLE9oKhYLb/IEQa0ZhTKxKbGws3N3dhXZJSQlaW1u5GiJO586dQ1dXl9AODw9HZGQkV0OItaIwJlYlODiY6zeura1FdXU1V0PEx2g0IisrC0ajUTiWlpYGb29vro4Qa0VhTKyKUqnkwri7u5sGcQ0CHR0dKCkpEdq2trYYNmwYLcpBRIPCmFgVR0dHJCcnC6stGQyGy+6YiPhUVVWhvLxcaHt5eSEpKYmrIcSaURgTqyKRSBAdHQ1nZ2fh2IULF9DZ2cnVEXEpKSnh9r2Ojo7+n5dSJcQaUBgTqxMaGgpfX1+hXV5ejqqqKq6GiIfRaERhYSF6enqEY/Hx8VAoFFwdIdaMwphYHX9/f4SGhgptlUqFM2fOcDVEPHp6elBYWIiLy+jb29sjNjZWmOJGiBhQGBOr4+7uzi3+YTQakZmZSf3GItXY2HjZetTR0dFcDSHWjsKYWB2pVIphw4ZxW+YVFxejubmZqyPiUFpaioqKCqEdFhaG8PBwroYQa0dhTKxSYmIiPDw8hHZNTQ032paIx7lz57glTyMjI+Hl5cXVEGLtKIyJVQoICEBqaqrQVqlUyM7O5mqI9evp6eHGA9jY2CA+Pp57KkKIGFAYE6tkb2+PUaNGCW2DwYCCggLo9Xqujli3srIyFBQUCG13d3ckJydzNYSIAYUxsVpJSUncfOPi4mK0tbVxNcS65eTkcPOLAwICEBsby9UQIgYUxsRqWc43rqur4zaeJ9bNaDTi/Pnz3NOOYcOGQalUcnWEiAGFMbFaQ4YM4XbtaWlpQXFxMVdDrJdKpeK2TJTJZEhPT4dUSl9bRHzoU02slpubG+Li4oTNAjQaDYqKimAwGCxLiRWqr6/HhQsXhLanpyeGDx/O1RAiFhTGxGrZ2toiOjoaTk5OwrG8vDyo1Wqujlin/Px8tLe3C+2hQ4dyK68RIiYUxsSqRUdHw9PTU2hfuHABTU1NXA2xPhf7i3U6nXBs+PDhcHFx4eoIEQsKY2LVgoODERAQILQbGxu51ZqIderq6uIeUTs4OCAhMYH2LyaiRWFMrJrlOsU9PT04ffq0sKkAsU61tbUoKysT2t7e3oiJjuFqCBETCmNi1ezs7DBs2DDujuns2bPo7e3l6oh1KSkp4aaphYWFITAwkKshREwojInVi4uL4/oSi4qKUFdXx9UQ62E2m5Gfn4/u7m7hWFxcHHx8fLg6QsSEwphYvdDQUISEhAjturo6lJaWcjXEemg0GuTm5gptuVyOmJgYyOVyro4QMaEwJlbPy8vrsv2Nv//+e66GWI+Ghgbk5+cLbTc3N8TEUH8xETcKY2L15HI5Ro8eza3MdObMGWg0Gq6OWIeioiJuO8zAwEAKYyJ6FMZEFOLj47n9jevr61FbW8vVkIGPMYbMzEzuWGxsLPUXE9GjMCaiEBYWhrCwMKHd1NTEzVMl1kGtVnNhLJFIkJaWRvOLiehRGBNRcHd35/qNu7q6UFhYSPONrUx5eTmqqqqEtpeXF5KSkrgaQsSIwpiIgoODA1JSUoR+Y4PBgMLCQlqn2srk5eVx61HHxMTQ/sVkUKAwJqIREREBhUIhtEtKSrgvdjKw6fV65OXlcQu2JCUl0f7FZFCgMCaiERoaCn9/f6FdW1uLmpoaroYMXB0dHdx+1HZ2dkhNTaX+YjIoUBgT0fDy8kJ4eLjQbmtro0FcVqSxsZFbrMXb25seUZNBg8KYiIarqytiYmIgk8mA/n7jnJwcmM1my1IyAJWWlqKxsVFoh4SEIDg4mKshRKwojIloSKVSJCQkwMnJSTh25swZGsRlBcxmM86fP8+tR52YmMjNHSdEzCiMiahERUXBy8tLaFdVVdE61Vagr68PeXl5Qtve3h7x8fGwtbXl6ggRKwpjIipBQUEIDQ0V2h0dHTh9+jRXQwaexsZGFBYWCm0PDw/qLyaDCoUxERU3NzckJCQIbZPJhKysLOj1eq6ODCznz59HU1OT0A4JCUFQUBBXQ4iYURgTUZFKpbj11lthZ2cnHMvPz0dLSwtXRwYOs9mMM2fOQKvVCsfi4+Ph5+fL1REiZhTGRHRiYmK4jQVqa2tRXV3N1ZCBQ61W4/z580LbxsYGCQkJkMvtuTpCxIzCmIiOv78/oqKihHZ7ezvNNx7AKioqUFJSIrRdXV25rgZCBgMKYyI6Dg4OSE1NFdp6vR5ZWVkwGo1cHRkYcnNzuZXSQkNDafAWGXQojInoSCQSDE8bDrlcLhwrLi6GSqXi6sj1ZzKbkJuby/2ilJiYCG9vb66OELGjMCaiFBEeAT8/P6FdU1ODuro6roZcf91d3Th37pzQlkqluOWWW7gaQgYDCmMiSj4+PggLCxPazc3NtPjHAFRdXc3tX+zp6Un9xWRQojAmouTu7o7ExEShrVarkZeXR+tUDzBFRUVoa2sT2rGxsTS/mAxKFMZElBwcHBATEwN7+5+mxxQVFaGnp4erI9ePwWBAfn4+NBoN0N/XHxcXBzc3N8tSQkSPwpiIVnR0NDw9PYV2UVERt8oTub5UKhUKCwvBGAMAODo6IikpidajJoMShTERrZCQEG4QV319PSoqKrgacv1Y9uN7eXkhMjKSqyFksKAwJqLl5eWF6Ohood3d3Y3c3Fyuhlw/paWl3Ah3f39/hISEcDWEDBYUxkS07O3tuUFcZrMZmZmZ0Ol0XB354zHGkJWVha6uLuFYbGwshgwZwtURMlhQGBNRS0lJgaOjo9A+deoUmpubuRryx+vt7eXmF/+0HvVPC7UQMphQGBNRi4qKQnh4uNBubW1Ffn4+V0P+eA0NDcjJyRHa9vb2SElJ4WoIGUwojImoeXp6Xvao+tIQINdHVlYW94QiJCSEW6SFkMGGwpiImlwuR1paGmQyGdDfV5mTk8P1VZI/lslkQmZmJkwmk3Bs1KhR8PLy4uoIGUwojInoJScnw8PDQ2iXl5ejsbGRqyF/nK6uLm5Uu62tLZKTk2l+MRnUKIyJ6IWEhHBTZhobG1FZWcnVkD/OldajvrQrgZDBiMKYiJ5SqeQWk1CpVCgpKRFWfiJ/rLy8PLS0tAjtyMhIbpAdIYMRhTERPUdHRyQkJAj9xr29vcjLy6P5xteBXq9HYWGhsB41aP9iQgAKYzIYSCQSJCYmwtnZGegfxFVUVITOzk7LUnKNWfYX29jYIDU1FRKJhKsjZLChMCaDQkhICLe6U2VlJQ3iug4aGxtRXl4utC2XLCVksKIwJoOCr68vIiIihHZrayvy8vK4GnLtlZSUoL6+XmhHREQgODiYqyFkMKIwJoOCi4sL4uPjhcehRqMRWVlZlmXkGsvJyeH6i6Ojo6FQKLgaQgYjCmMyKNjY2CAuLg729vbCsby8PHR0dHB15NrRaDQ4f/680HZwcEBSUhKtR00IhTEZTGJiYuDj4yO0y8rKUFZWxtWQa6epqQkXLlwQ2kqlElFRUVwNIYMVhTEZNIKDg7n+yfb2dlqn+g9UWFjI9Rf7+/vTetSE9KMwJoOGh4cHt9JTX18fsrOzuTWSybXBGMN3330HrVYrHIuNjYWvry9XR8hgRWFMBg2ZTIa0tDTY2NgIxwoLC9He3s7Vkauvq6uL6y+WyWRISUnh+vAJGcwojMmgMmrUKG61pwsXLnDrJJNro7KyEiUlJULb0dERN9xwA1dDyGBGYUwGFT8/P27QUFdXFxcS5NrIz8/n1qMOCQnh5n0TMthRGJNBRS6XIzk5WWjrdDrk5+fDbDZzdeTqMZlMyMrKQl9fn3Ds1ltvhZubG1d3KaPRSBt5kEFFwugTTwaZzZs347nnnhMGE40dOxZbtmyBUqm0LCVXQVtbGyZOnIivv/4aAGBnZ4eNGzdi0qRJlqWoqqrCoUOHUFlZCTc3N4waNQrp6ekwGo04cuQImpqaIJVKATAAEkgkEtjb22P06NEICgqyvBwhVoPCmAw6p06dwiOPPCLsaRwTE4Pdu3cjISHBspRcBTk5OZgwYYLQHRAQEIBPPvkEI0aM4OpKS0swc+ZM5OTkIi4uDp2dnWhsbMS8efNw//3346WXXkJW1lnIZD8OwJNKpWhra4OtrS02b96M2267jbseIdaEHlOTQcfX15eb39rU1CQEM7n6Lly4wG3KERYWhsDAQK4GAPbv349Tp05j2bJl+OSTT7Bt2zaEhIRg7dq16O7uxtKlS/HJJ59i7969+Pjjj/H+++8jMDAQI0eORFxcnOXlCLEqFMZkQFOpVDh06BA2btyI7du349y5czAYDMLrbW1t+Prrr7Fx40bs2bOH2xHo5ygUCm7wUHd3N4qKiqjf+BowmUwoKCiAWq0WjiUkJFzWJWAymdDU1IzbbrsN48aNg5OTEyIiInDzzTejubkZbW1tCAoKQkxMDKKjoxEZGYnDhw9Dr9djzpw5tB8ysXoUxmTAam1txcsvv4xp06bhgw8+wIoVK/D4449j9+7dMJvNaG5uxoIFC/Diiy9i69ateP311zFt2jScPn3a8lIcJycnxMbGCmsim0wmnDt3Dr29vZal5HeynF/s4OCA+Ph42NnZcXVSqRSTJ0/Ga6+9BicnJwBAQ0MDTp06BR8fH277SwD4+uuv8e9//xuPPfYYUlNTudcIsUYUxmTAOnDgAHbt2oWJEydi9+7d2LRpEwICArB27VrU19fj+PHj2LdvH1544QXs3r0b77zzDqqrq7F+/Xru7tmSRCJBbGwsXFxchGMXLlzgpt6Qq6OptRWFl0wdUygUiImJ4WrQ/57ExMQIO2tlZWVh+vTpOH36NJ555hluGVONRoMdO3Zg6NChmDhxIncdQqwVhTEZkMxmMwoKCjB0aDieffZZhIaGIiUlBePGjUN9fT2amppQX18POzs73HjjjfD390d6ejrCwsJQV1f3Xx85R0REcEsxlpSVoZQ2jbhqjCYT8gvy8Mn6dbCprIR3/5dNUGgIwsPDLcsFtbW1eP311/HYY4+hvb0dH374IZ5++un+EdQ/+uGHH3Dq1ClMnTqV2/iDEGtGYUwGJIlEgnHjxmHx4tfh6ekJAOjt7UVeXh6cnJzg4uKC5ORkODo64r333sOXX36J999/H1VVVbj77rsvewxqycvHGwHBwZAD8ANgq9Hg8OHD6DMaLUvJr2Qym/H1vn34eOrfELVmDf7Z14cPAPwdgL+dHWx+5r2prKzEnDlzsHPnTkycOBHbtm3D+PHjuffSYDDgwIEDcHV1xejRo7nzCbFqjBArUFlZyZ599lnm6enJXn31VabT6VhTUxO75557mJ2dHYuKimKurq4sNDSUZWZmWp7OMZnN7D9f7WNPDw1hWwD2LcD2AyxD4c5WL1vMOjo7LU8hv0JeXh7LGJ7MzgFMd8lPG8DWKj3YRx/+i5lMJu4cs9nMli5dysLCwthXX33FvXappqYmdsMNN7AZM2Ywo9Fo+TIhVovujMmAptVqsWPHDjz66KPYv38/ZsyYgZkzZ8Le3h7bt2/HmTNnMHfuXGzatAkrVqyAXC7Hm2++ia6uLstLCcpKS3H67bcwrbwKDwEYAeB2ANM7VOh9ZwX+31f/gZmm3/9mRT98j+BzOYgEYARg6P9xAjC6vRPVBw+iU93NndPb24vjx4+ju7sbO3fuxJQpUzBp0iQ8/vjjmDlzJioqKgAApaWlqKqqQlJSEmQyGXcNQqwZhTEZsLq6urB48WIsXLgQUVFR2L17N1555RV4eHhAo9Xg8y8+R3JyMmbOnIlRo0Zh6tSpeOihCfjhhx9+cfOHvBPHEHzqLCL6Q+JiYDgD+FOHCuX7Poda99NWf+R/xwD0NDVBYWaQ9LcvMgFwAyBta4bmkq0U0d8tMWrUKNxxxx3o7e2FWq2GRqMRfoyXdB9MmDABaWlp3PmEWDsKYzJg7d27F1u2bMGsWbPwz3/+EzfccIMwkEcmlUFuJ4derxe+qBljMJsZ7OzsfqHPmKGzuhpuWh1sLMKCAfAE0FdeDo2Gwvi3kABwUiiglVxcsJJ/TQOgR2YLmZS/q7W3t8fcuXOxZcsW7NixAzt37sTOnTuxa9curFmzRhj0NXLkSKxYsYJWSyOiQ2FMBqSenh4cPXoUnZ2dyMvLw8KFCzF79mzMmjULS5YsQWtrK+677z6cO3cOixYtwuHDh7F27Vrs3LkTt956KzcV5lJmBrR1q6GxfKE/LPQAbJSKXwhz8t8EpqSiLCQYnQBsAMj6/ykB8D2A7Vnn8dGOHZdNP7O1tRV+kbL8ufhLmI2NDWxtbSGRXBrzhFg/WUZGRoblQUKuN7Vajfz8fKB/la26ujo0NDSgtrYWGo0Go0ePxujRoyGRSHD8+HEcOXIEOTk5GDVqFObOnXvZIhHoD/gPPvwQK9etg7SnB6P6+zFZf2AAwD4AmQGB+L/7xsHF2dniCuR/odHpsHr/fpQ0NcELQB+AegD7AawEUNbbixPHj0On0yE+Ph7O9PdMCG0UQQYmk8mErq4u9PX1cXdBjDHIZDJ4eHjA1tYWfX19qKmpQUdHBxwdHREUFHTFrfnUajVWr16NVatWob29He4AngbwEABfADoAxwC8CaDWxQX/XLeOFpT4jTZu2IAZ//gHzL29iAIQ5eaGmLQ07M7JQVlrq1Dn4OCAiRMnIiMjA35+ftw1CBlsKIyJ6HV2dmL58uVYu3atsG0iAHi5u2FcajI89FrkVdXheF0jLq6gnJqair1793IbSpD/rr6+Hvfddx/Onj374wGJBJOffBJLly7F8WPHMHf27MsG140fPx7Lly//xcVACBE9y7lOhIhJQ0MDmz59OpPL5az/iTQDwIYMGcLeX7OGNbW1sar6erZ91y6m9PISXpdKpWz+/PlMr9dbXpL8DJPJxN566y0mlUqFv0f/gAD2/775Rqj58ssvWVxcHPdeAGB33HEHy87O5q5HyGBCYUxEq7i4mD300ENMIpFwX/wRERFsy5YtXNDqDXo2a9YsrjY0NJSdOHGCuyb5eQUFBZcF7XPPPcd6e3u5um+++YaNHj36skAeNWoUO3ToEFdLyGBBYUxEKT8/n40dO5a7SwPAIiMj2VdffcUMBoPlKay0tJQlJiZy9U8//TTr6emxLCUWTCYTy8jI4P6+AwMDWW5ermUpY/2rdI0dO/ayQI6MjGSffvqpZTkhokejqYnoZGdnY8aMGThy5AguHRKRlpaGNWvX4I7b7+A2HrhIoVBAr9fj2LFjwrSbmpoaJCUlITIy0rKcXKK4uBiLFy9GU1MT0L+IxzPPPIPHHn3MshQA4O3tjZEjR6K9vR2FhYXC+9Te3o7jx4/Dy8sL0dHRsLGxsTyVEFGiMCaiYTabcfDgQcycORM//PAD99rtt9+Od999F+np6dxxS/7+/sjNzUVZ/w5OWq0WKpUK//d/d8LJydGynAAwGo344IMPsGfPHiFU4+Li8Prrr//irkoeHh5IT0+HRqNBQUGBsHiLWq1GZmYmpFIpkpKSaM43GRQojIlofPnll3j55ZeRm5vLHf/rX/+KN95443/ahN7V1RW2trY4cOCAcHdcW1uLgAA/jBgxwrKcACgpKcHixYvR2NgI9C/M8dRTT2HcuHH/9c7WxcUFI0aMgL29PbKzs9HX1wf071l89uxZGAwGpKSkwMHBwfJUQsTF8rk1IdZGr9ezbdu2MX9/f67/0dbWlk2aNIk1NDRYnvKL1Go1e+SRR7hrRUVFsYLCAsvSQc9gMLBXX32V+7uKi4tjublX7iv+OUajkb3//vvMx8fnsn7k3/IeEmJt6M6YWDWdTodNmzZh7ty5aG5uFo7L5XJMmTIFixYt+tULStjZ2cHb2xuHDx9Gd/ePuwt1dnbC2dkZo0eP/q93e4NJfn4+Zs+eLfw9AcBTTz2FBx988Ir98j9HKpUiOTkZ3t7eyMrK4q6Xl5eHpqYmxMfHQ6lUcucRIhYUxsRqdXd3Y9WqVVi+fDna29uF4w4ODnjxxRexYMGCX+yz/CUBAQHQarU4duwY+mcdoLGhEampqQgNDbUsH5S0Wi1WrFiBQ4cOCcfi4uKwbNkyeHt7c7X/C5lMhuTkZERERCA/Px8tLS3Aj0/vkJeXh+LiYsTGxv7qX64IsQqWt8qEWIOuri42c+ZM5uzszD3S9PDwYG+9/dZVmY5UUlLC0tLSuOtPnjyZ6XQ6y9JB6eTJkyw8PFz4u7Gzs2Nvv/22ZdlvcuzYMZaenn7ZI+vU1FR29OhRy3JCrB6FMbE6NTU1bNq0aZfNIfb19WXr1q1jfX19lqf8Jmazmb3//vvM0dFR+DOcnZ3ZZ599Zlk66Oh0OjZz5kzuPRgxYgSrqqqyLP3NsrOz2e23337Zoi2xsbHsiy++YCaTyfIUQqwWhTGxKqWlpezhhx9mNjY23Bf00KFD2datW6/68pUNDQ1szJgx3J91yy23sOrqasvSQeXUqVMsODhY+DuRy+Vs9erVzMzMlqW/y4ULF9gTTzzBbG1tufcgJCSEffjhh5et7kWItaI+Y2I18vPzMWfOHHz++ecwmUzC8bi4OLz77ru47777rvrgKhcXF7i4uODAgQPCtJvGxkYoFArceOONg3JfXZPJhBUrVuDrr78Wjg0bNgzz5s2DQqHgan8vpVKJkSNHQqPRICcnR3jfVSoVMjMzAQDDhw+Hra2txZmEWBcKY2IVTp06hWnTpuHbb7/lVtUaPnw41qxZg9tvv/1Xjd79NUJDQ1FfXy/sRGQymVBfX4+bb775ivsmi93xEyfwekYGenp6AAD29vZ48cUXcdddd1mWXhUuLi4YPXo0AODcuXPC/G+tVosTJ07AaDTSXGRi9SiMyYB35MgRzJkzB2fOnOGO33zzzXjnnXdw4403csevNhsbG/j6+eLo0aPo7OwEALR3dsLB2Rk333ILbGUyy1NExcQYcvPz8f3x75B7Lgv/2rwZWRe3SOzfbvKVV16Bu7s7d97VZG9vj5EjR8LZ2Rk5OTnQaDRA/y9GZ8+ehUqlQkpKClxcXCxPJcQqUBiTActsNuPzzz/HSy+9hJycHOG4TCbD/fffj1WrViElJYU751rx8faBVqvFycxMmIxGODMGXWUFulUqSJ2c4OfnD6kIH1mre3qwZ/Mm/DDvJTht3QHpvi9hKChCPWNQ9c/nfv3113HrrbdannrV2draYsSIEfD390dOTo7wi5HRaMTZs2dRVVWF2NjY3zStipDrzrITmZCBwGg0sq1bt162qhYA9vjjj1/VUbv/q+ILF1j6DSPYfQD7GGDfAexTgM2LHMo+2r6V9V1hJyhrZmaMfbpzB1vq5ckqAdbT/9MFsE8ANgRgf7rjDqbRaCxPvaZMJhP78ssvWVhY2GWfjdtuu43l5ORYnkLIgEd3xmTA0fXqsHHjRrz22mvCesfovwv729/+hqVLlyIgIIA751owGAzQ6XTQ9PSgW61GbnY2XPZ9idntHUgDEAAgCkBIeye+yzsPeWoqgoJDLC9jtdpVKvxn4XyMzclHKABzf+LJAIQC6AJQ6OiIipoa5OTkoLy8DDU1tWhpaUF3dzd0Oh30er3QxyuVSq/KgDeJRIKoqCgkJyejtLQUtbW1wmtVVVXIyclBREQEgoKCrsqfR8gfQcIuHQ1DyHWmVqvx3vvvYeWKlejo6BCOu7i44IUXXsALL7wAT09P7pzfore3FxqNBj09Pejp6UFXV5fwo1KpoFKp0N3djc7OTnR0dqKlrQ2msjLMranBnxjDj/ECSPrD6RCA+vlz8felyyGWr/+SinLsGjMGU0vL4NYfxhfZAPgEwHQA6v5jUqkMzs5OcHFxgaurK5ycnODp6QkvLy94e3vD3d0dCoUCnp6e8PDwgEKhgJubG9zc3ODi4gJ7e/tL/oT/TU5ODubNm4eDBw9yA/vi4uKQkZGBcePGQSbyPn0iDhTGZMBob2/H4sWLsXHjRuh0OuG4p6cn5syZg+effx5yuZw751KMMfT19UGr00Kr0Qph297ejra2NrS0tAg/F4O2s7MT3d3d6O3tRV9fH/R6PXp7e2EwGGA2m7kv+GQAmwBEA/hxs78f2QAoAHD4kQmYvXM3ru7kquunsrYWO8bcicmFRfC4QhjvAvA8gB/HVP8yiUQCiUQCOzs72NvbCz8uLi7w8vKCh4cHlEol/Pz84O/vjyFDhggB7uzsDBcXFzg6Ol4xWCsqKpCRkYEdO3bAbP7pf2VwcDAWLlyIRx59FHqzGa3tbbCztYOXUgn7qzwFjpDfi8KY/OEMRiOqa2vR1tQAma0dAgKDYNDrsXzZMmzcuJH7QvXw8MCCBQswadIkmM1mdHd3o6enBxqNBt3d3ejo6EBnZyfa2trQ3t6Ojo4OIXibmprQ0tLCXe/3iATwAYDhFmFsC+B7AOeffQYvrFmPazPB6o+n1mqwftpUjNy+C2kWj6m7ACy0kWG7jS30RqOwF/HVJJFIMGTIEPj7+8PPzw9e3l7w8faBt7c3vLy8oFQq4e7uDqVSCa1Wi+XLl+Ozzz4T5oMDgEKpxJNPPAGP5kaoCwph4+gEtxtG4M9TpiA+IVGUg+6IdaIwJn+o9s4O7Nvyb9R/vBdO9TUwy2yhiYhGtq0tvjp8BH29vVx9YGAgRo8eDV2vDl2qLuGRslqt5vokL/ZLXm12dnaQ29tDLpfDVSbDtPY2PG0wwr4/nKQANAC2u7siZN163PvIo5aXsFoMwLdHDuPYiy/gT3lFCOu/I1YB+M7FEfVPPAG/pFS0t7aiubkZra2t6OjogEqlQkdHBzQaDXQ6HXp7e9Hb28s9Zfg9bGxsIJfLYWdnB2dnZygUCiiVSuj1emRlZXFPVewBPA5gCoBAAH0A8gDk3DIaf135LlJTh3PXvqi7uxtlZWVobW2FUqlEVFTUFadNVVRUQKvVIjY29prNcyeDA4Ux+cNodTpsWfkOJG8sx509Orj1f+E3AFgJYBuAn9bVuvZcXV1/fATq7AJHJ0fhUam7u7vwo1QqoVQqoVAoYWcvR+beXZCv34DRfXoo+oPpmNwOeOE5PPbyAnhe5RWorjejyYTME8fx7T/XwS43H7I+PbSBfgge/yDueWwiFO4eQP98X71eD51OB632xy6Crq4utLW1obW1FS0tLUJ3QXt7O1pbW6FSqaBWq4W++qtNAuBBCfAGA/wu+WxJABwDkPvkZDyzeg1cnJy48yorK5GRkYGzZ8/C0dERarUao0aNwiuvvIKwsDChTqvVYtq0aZBIJNi0adNVX/2NDC4UxuQPc/bsaRx4/DFMKS6D4pI+yIt9rtMBnLY459eQSCSQSqWwtbWFg4OD8KNQKODt7c093rx47OK/u7q6Qi6XC3dctra2V7zTUXV34+N/b0b+F1+ANTVANsQP8fePwz2PToSnx4/BJEYqtRrNTY3Q6nQYMsQX3p6ekF3h7+eXXOzTv/ijVqvR1taG5pZmtDT/1K3Q2NiI+vp6tLW1oaenB1qtFjqdDkaj8Vd1OTgCeLP/rvji3Cf0P2bvALA1OR6PfrEfIUHBwjlGoxGLFi3CBx98gAULFmDkyJE4+PVBLF2yFBkZGZgzZw5UKhUOHTqEgwcPYteuXbjjjjvwySef0JKc5HehMCb/1cVHwD/3ZXOxj+6XBlcBwKc7dqDjqafwcP9jxIsfPCkAHYD5AP51Sb1EIoGtrS1sbW1hY2MDBwcHYa1oZydnOLk4wc3VDQqFAh4eHsJo3Ysjdi/+u4ODgxCwV+PuhQHo0vRAp+uFvb09PJydLUvIb8QYE7oeenp60NLagrbWNjQ3N3N31ZZ31iqVChqNBkajEXq9HkajEY4A1gJ40CKML3YtbIoKw/37DiAyIlL489VqNaZMmQJfX1+89957kEgkaG1txQ033IA77rgDGzZsQHl5OV555RVUV1cjNzcXf/7zn7F3796f/e+DkP8FhTH5WU1NTdi/fz9yc3MhlUqRlpaGu+66S9gMoK2tDZ999hnOnTsHiUSCiIgIjB8/HoGBgZaXAgB8um0bVNOmYcIVwrgXwHJHB2SmpMLP1xeK/kfGSqUSHgoPeLh7CI+VL06bcXJyglwuFwL7SiNtibiYzWYYDAbo9XpotVqo1WphKtrFvurW1lY0t7SgqrQE6d98i7/39sLW4klMJYC9t9yIp/Z8Aj9vH+H6BoMBZ8+ehUKhQHBwMJqbm3H06FG8+uqrmD17Nv7xj3/AYDAIfePTpk2Ds7MzPvvsMwpj8rtQGJMr6u7uxqxZs3DgwAGkpKSgr68POTk5mDJlCpYsWYLe3l7Mnz8f27ZtQ2pqKhwdHXHq1Cmkp6djzZo1VwzkH06ewPEnHsGkijo4W3w5XgCw/89/wvh1GxDo5wcbGxtIpVLIZLIBu3BDQ0MDSkpK0Nvbi+DgYAwdOhR2dnbC62q1Gvn5+ejq6kJQUBCio6Ov+Oh7IOns7ER+fh7a2zvg5eWF2NhYeFzy+L2trQ1FRUVQq9UICQlBZGTkVXnacDVdnJJW19iAf//jH7jhk09xc39fsaR/KtbHzg6wX74cE//+HGyu8EscYwz79+/Hyy+/jMrKSkRHR2Pbtm2Ij48XarRaLcaPHw+pVEphTH6/nxbjIuQnR44cYZ6enmzlypVMp9Oxzs5ONnnyZBYZGcnq6urY999/z4KDg9mLL77IOjs7mVarZW+99RZzc3NjmzdvtrwcY4wxtbqHrZo7h22V27LG/mUVuwBWBrB3/IawXVu3WJ4yIJnNZvbNN9+wW265hUVGRrLo6GgWHR3N3n77bWE/5fLycvboo4+y4OBgFhERwSIjI9nKlSv/8KUjf42SkhJ2//33s8DAQBYZGclCQkLYI488woqLixljjJ0/f57de++9LDw8nEVFRbH4+Hi2evVqZjQaLS81YJzOOsvm3vdXttHViR2Qydh+Gxl7x8+HvTH7Jdba3m5ZzrlQcoGtXr2aPfHEE0ypVLJp06YxrVYrvN7d3c3GjBnDxo4de9X30SaDz8D+NZ1cN4wxjBkzBvfeey/s7e3h5uYGPz8/oP9RXldXF0JDQzFp0iS4u7vDwcEBt956K+RyOVpaWiwvBwBwdnbCuGdnoPP557ElPAw7nRyw090Fu4elYkjG6xhz732WpwxILS0teOONN2A2m7Fy5Ups3LgRw4YNw7p163D+/HkwxrBhwwYcOnQIM2fOxAcffIAbb7wRb775Jo4dO2Z5uQHBYDBg7bq1OHnyJGbPno0dO3Zg9uyXcPz4cWzevBldXV1YvXo1KisrsWzZMmzevBk33XQTVq1ahZMnT1pebsBISx2GZ9f+E+7r1qP69YVoWLoECZs34++vLbziyPfu7m58++23qK6uRmREJJ5//nmsX78ed911F7788kvU19dbnkLI1WGZzoQwxlhvby9TqVSsq6uLff7552zevHksJiaGzZw588c7ZVUnKyoqYn19fYwxxnp6etjcuXOZQqFge/futbwcR63RsnPns9mRA/9h3xz+mhWXljKDyWRZNmBlZWWxYcOGsa1btwrH9u3bx3x9fdn27dtZc3MzS0pKYpMnTxbuGgsKClhQUBB78cUXB+SdZHt7O4uPj2cTJ04U7vJ0Oh0bN24cu/POO1lWVhZLSEhgS5ctFc7Jz89nMTEx7Pnnn2dms/mSqw1MRsbYf/uUVVRUsJtuuom98cYbwjGz2cyeeeYZ5uvryyoqKoTjdGdMria6MyZXJJfL4ebmBo1Gg507d+LDDz9EdXU17OR2MJvNcHdzR3R0NOzs7FBcXIw5c+Zg48aNmDBhAv70pz9ZXo7j7OiAlKRk3D7mL7j1jv9DVHg4bAZ4X+qlwsPD8a9//Qtjx47t72PNx8GDB6FQKJCUlISqqip0dXUhPT1dGFQWEBCA8PBwVFdXc4tSDBRyuRwvvPACpk6dKvR9dnZ2oqWlBa6urjAajTAYDPDy9BLOuThKvaqqakD+f7Ik6x8s+Es8PT3h6+uLLVu24NNPP0Vubi42bdqEzz//HLfffjt8fH4a7IX++dUm0x85O56I1X/7bJJBSq/XQ6/Xw8vLC++++y4OHTqEKVMmY+PGjfj2228BACqVCmvXrsXjjz+OU6dOYeHChXjjjTeE0dZi5erqipSUFLi5uWHNmjWYMGECNmzYgMTERISHhwsbXFz6xS2XyzFkyBCo1eprtlrY7+Hk5ISpU6filltugclkQta5LMydOxd1dXV44IEHEBISAm9vbxw8eBDl5eVobW3FgQMHUF1dLUwlEgMXFxfMmjULYWFhyMjIwLRp0/D+++/jzjvvxIIFC+Do6CjUSqVSREREYOjQoQN2kCGxHjSamlzGbDZjx44dqK+vx/Tp0+Hq6goAyMw8iQceGI/58+fjySefxLJly7BlyxY88MADePrppxEbG2t5KVFjjOHUqVPIzc3FkSNH8P333+PNN9+EUqnEs88+i1WrVuHuu+8G+udiP/nkk+jo6MCOHTu4EcoDSUdHBzZv3oxNmzbB1tYWM2fOxIMPPggHBwfs3LkTixYtEuZ1V1dXo6qqCmPGjMG2bdu4oLJ2DQ0NKC8vR09PDxQKBaKiouDu7s7VmM1mNDU1gTEGPz8/CmTyu9CdMbmMVCpFTU0N3nvvPeTk5IAxBqPRiJKSUuj1egQGBuLMmTPYsWMHpk2bhiVLliAyMlJYg1gsd0k/p7KyEkeOHIFarcbIkSPx9NNPY/HixXB3d8d//vMfODg4QCaTobW1VThHr9ejsbERHh4e/3VxlOultrYWzzzzDFasWIGxY8fi448/xqRJk4SQHT9+PLZt24ZHHnkEd999NxYuXIjIyEh4e3vDwcHB8nJWzc/PDzfddBPuuusu3HDDDZcFMfr/O7m4yxQFMfm9KIzJFd19993w8vLCzJkzsWjRIsydOxfLly/HTTfdhJEjR+LcuXOor6/H4cOHMXHiRIwbNw4PPvggHn74Yezfv9/ycqJy4sQJTJo0CadOnRKOSaVSSKVSyOVyBAQEwNnZGd98843wi0lpaSnKysoQExPzm/btvdb6+vrw9ttvIysrC2vXrsVbb72F8PBw4XWVSoVVq1ahra0Nzz//PKZPnw6lUgmNRoNbbrmZwoiQ30mWkZGRYXmQEG9vb8TExEClUqGiogI9PT24/fbbMXPmTAQHB0OtVgtLTrq4uMDNzQ2urq7w8PBAYmIit6C+2NjY2ODQoUM4f/48nJ2dUVVVhX/+85/Iz8/HjBkzkJ6ejtraWuzcuRNGoxHt7e1YuXIlurpUmDNnDgICAiwved1VVVXh5ZdfhouLCwICAnDq1CmcPHkSJ06cQHNzM4KCgrBu3Tp8+eWXCA0NRUVFBd566y14eHhgzpw5onpETcj1QH3G5BddXHZQJpPByclJWEHqlz42Yr9LMpvN2LdvH9599100NTVBKpXC3d0dkyZNwpQpU2BnZ4fqmmosXbIUR48eBWMM3t7emDVrFu6///4BuWxndnY2XnrpJahUKshkMuH9NRgMuOmmm/Dmm28iOzsbS5YsQU1NDdA/qnzevHkYOXKkxdUIIb8WhTEhv1FdfR2qq6vBzAwBAQEIDg7mfhHRaDQoLCyEVqtFcHAwQkJCuPMHkt7eXnR2dl62KxJjDPb29lAqlZBIJGhqakJpaSkAIDIyAj4+Q7h6QshvQ2FMCCGEXGc0gIsQQgi5ziiMCSGEkOuMwpgQQgi5ziiMCSGEkOuMwpgQQgi5ziiMCSGEkOuMwpgQQgi5ziiMCSGEkOuMwpgQQgi5ziiMCSGEkOuMwpgQQgi5ziiMCSGEkOuMwpgQQgi5ziiMCSGEkOuMwpgQQgi5ziiMCSGEkOuMwpgQQgi5ziiMCSGEkOuMwpgQQgi5zv4/mE6VzuG3LCMAAAAASUVORK5CYII=;" vertex="1" parent="1">
          <mxGeometry x="651.9971254185269" y="53.00427699497769" width="483" height="493" as="geometry" />
        </mxCell>
        <mxCell id="Z7ct0C7aWbF0iMJiXNYh-2" value="" style="ellipse;html=1;shape=endState;fillColor=#FF0000;strokeColor=#ff0000;" vertex="1" parent="1">
          <mxGeometry x="456" y="231" width="16" height="16" as="geometry" />
        </mxCell>
        <mxCell id="Z7ct0C7aWbF0iMJiXNYh-4" value="" style="ellipse;html=1;shape=endState;fillColor=#FF0000;strokeColor=#ff0000;" vertex="1" parent="1">
          <mxGeometry x="432" y="346" width="16" height="16" as="geometry" />
        </mxCell>
        <mxCell id="Z7ct0C7aWbF0iMJiXNYh-6" value="" style="ellipse;html=1;shape=endState;fillColor=#FF0000;strokeColor=#ff0000;" vertex="1" parent="1">
          <mxGeometry x="346" y="346" width="16" height="16" as="geometry" />
        </mxCell>
        <mxCell id="Z7ct0C7aWbF0iMJiXNYh-7" value="" style="ellipse;html=1;shape=endState;fillColor=#FF0000;strokeColor=#ff0000;" vertex="1" parent="1">
          <mxGeometry x="456" y="231" width="16" height="16" as="geometry" />
        </mxCell>
        <mxCell id="Z7ct0C7aWbF0iMJiXNYh-8" value="" style="ellipse;html=1;shape=endState;fillColor=#FF0000;strokeColor=#ff0000;" vertex="1" parent="1">
          <mxGeometry x="330" y="231" width="16" height="16" as="geometry" />
        </mxCell>
        <mxCell id="Z7ct0C7aWbF0iMJiXNYh-9" value="" style="ellipse;html=1;shape=endState;fillColor=#FF0000;strokeColor=#ff0000;" vertex="1" parent="1">
          <mxGeometry x="322" y="442" width="16" height="16" as="geometry" />
        </mxCell>
        <mxCell id="Z7ct0C7aWbF0iMJiXNYh-10" value="" style="ellipse;html=1;shape=endState;fillColor=#FF0000;strokeColor=#ff0000;" vertex="1" parent="1">
          <mxGeometry x="456" y="442" width="16" height="16" as="geometry" />
        </mxCell>
        <mxCell id="Z7ct0C7aWbF0iMJiXNYh-11" value="" style="ellipse;html=1;shape=endState;fillColor=#FF0000;strokeColor=#ff0000;" vertex="1" parent="1">
          <mxGeometry x="485" y="272" width="16" height="16" as="geometry" />
        </mxCell>
        <mxCell id="Z7ct0C7aWbF0iMJiXNYh-12" value="" style="ellipse;html=1;shape=endState;fillColor=#FF0000;strokeColor=#ff0000;" vertex="1" parent="1">
          <mxGeometry x="456" y="338" width="16" height="16" as="geometry" />
        </mxCell>
        <mxCell id="Z7ct0C7aWbF0iMJiXNYh-13" value="" style="ellipse;html=1;shape=endState;fillColor=#FF0000;strokeColor=#ff0000;" vertex="1" parent="1">
          <mxGeometry x="467" y="341" width="16" height="16" as="geometry" />
        </mxCell>
        <mxCell id="Z7ct0C7aWbF0iMJiXNYh-14" value="" style="ellipse;html=1;shape=endState;fillColor=#FF0000;strokeColor=#ff0000;" vertex="1" parent="1">
          <mxGeometry x="451" y="354" width="16" height="16" as="geometry" />
        </mxCell>
        <mxCell id="Z7ct0C7aWbF0iMJiXNYh-15" value="" style="ellipse;html=1;shape=endState;fillColor=#FF0000;strokeColor=#ff0000;" vertex="1" parent="1">
          <mxGeometry x="464" y="354" width="16" height="16" as="geometry" />
        </mxCell>
        <mxCell id="Z7ct0C7aWbF0iMJiXNYh-19" value="" style="endArrow=none;html=1;rounded=0;exitX=0.5;exitY=1;exitDx=0;exitDy=0;entryX=0.5;entryY=0;entryDx=0;entryDy=0;" edge="1" parent="1" source="Z7ct0C7aWbF0iMJiXNYh-12" target="Z7ct0C7aWbF0iMJiXNYh-14">
          <mxGeometry width="50" height="50" relative="1" as="geometry">
            <mxPoint x="535" y="-62" as="sourcePoint" />
            <mxPoint x="567" y="-62" as="targetPoint" />
            <Array as="points" />
          </mxGeometry>
        </mxCell>
        <mxCell id="Z7ct0C7aWbF0iMJiXNYh-22" value="" style="endArrow=none;html=1;rounded=0;entryX=0.5;entryY=1;entryDx=0;entryDy=0;exitX=1;exitY=0;exitDx=0;exitDy=0;" edge="1" parent="1" source="Z7ct0C7aWbF0iMJiXNYh-12" target="Z7ct0C7aWbF0iMJiXNYh-11">
          <mxGeometry width="50" height="50" relative="1" as="geometry">
            <mxPoint x="508" y="330" as="sourcePoint" />
            <mxPoint x="557" y="144" as="targetPoint" />
            <Array as="points" />
          </mxGeometry>
        </mxCell>
        <mxCell id="Z7ct0C7aWbF0iMJiXNYh-23" value="" style="endArrow=none;html=1;rounded=0;exitX=1;exitY=0.5;exitDx=0;exitDy=0;entryX=0;entryY=0;entryDx=0;entryDy=0;" edge="1" parent="1" source="Z7ct0C7aWbF0iMJiXNYh-7" target="Z7ct0C7aWbF0iMJiXNYh-11">
          <mxGeometry width="50" height="50" relative="1" as="geometry">
            <mxPoint x="461" y="97" as="sourcePoint" />
            <mxPoint x="463" y="121" as="targetPoint" />
            <Array as="points" />
          </mxGeometry>
        </mxCell>
        <mxCell id="Z7ct0C7aWbF0iMJiXNYh-24" value="" style="endArrow=none;html=1;rounded=0;exitX=0.5;exitY=0;exitDx=0;exitDy=0;entryX=0.5;entryY=1;entryDx=0;entryDy=0;" edge="1" parent="1" target="Z7ct0C7aWbF0iMJiXNYh-7">
          <mxGeometry width="50" height="50" relative="1" as="geometry">
            <mxPoint x="439" y="346" as="sourcePoint" />
            <mxPoint x="441" y="243" as="targetPoint" />
            <Array as="points" />
          </mxGeometry>
        </mxCell>
        <mxCell id="Z7ct0C7aWbF0iMJiXNYh-25" value="" style="endArrow=none;html=1;rounded=0;exitX=0.5;exitY=0;exitDx=0;exitDy=0;entryX=0.5;entryY=1;entryDx=0;entryDy=0;" edge="1" parent="1" source="Z7ct0C7aWbF0iMJiXNYh-10" target="Z7ct0C7aWbF0iMJiXNYh-4">
          <mxGeometry width="50" height="50" relative="1" as="geometry">
            <mxPoint x="440" y="419" as="sourcePoint" />
            <mxPoint x="465" y="320" as="targetPoint" />
            <Array as="points" />
          </mxGeometry>
        </mxCell>
        <mxCell id="Z7ct0C7aWbF0iMJiXNYh-26" value="" style="endArrow=none;html=1;rounded=0;exitX=0.5;exitY=0;exitDx=0;exitDy=0;entryX=0.5;entryY=1;entryDx=0;entryDy=0;" edge="1" parent="1" source="Z7ct0C7aWbF0iMJiXNYh-6" target="Z7ct0C7aWbF0iMJiXNYh-8">
          <mxGeometry width="50" height="50" relative="1" as="geometry">
            <mxPoint x="452" y="372" as="sourcePoint" />
            <mxPoint x="477" y="273" as="targetPoint" />
            <Array as="points">
              <mxPoint x="349" y="307" />
            </Array>
          </mxGeometry>
        </mxCell>
        <mxCell id="Z7ct0C7aWbF0iMJiXNYh-27" value="" style="endArrow=none;html=1;rounded=0;exitX=0.5;exitY=0;exitDx=0;exitDy=0;entryX=0.5;entryY=1;entryDx=0;entryDy=0;" edge="1" parent="1" source="Z7ct0C7aWbF0iMJiXNYh-9" target="Z7ct0C7aWbF0iMJiXNYh-6">
          <mxGeometry width="50" height="50" relative="1" as="geometry">
            <mxPoint x="345" y="449" as="sourcePoint" />
            <mxPoint x="370" y="350" as="targetPoint" />
            <Array as="points" />
          </mxGeometry>
        </mxCell>
        <mxCell id="Z7ct0C7aWbF0iMJiXNYh-29" value="" style="endArrow=none;html=1;rounded=0;exitX=0;exitY=0.5;exitDx=0;exitDy=0;entryX=1;entryY=0.5;entryDx=0;entryDy=0;" edge="1" parent="1" source="Z7ct0C7aWbF0iMJiXNYh-7" target="Z7ct0C7aWbF0iMJiXNYh-8">
          <mxGeometry width="50" height="50" relative="1" as="geometry">
            <mxPoint x="357" y="383" as="sourcePoint" />
            <mxPoint x="341" y="284" as="targetPoint" />
            <Array as="points">
              <mxPoint x="392" y="239" />
            </Array>
          </mxGeometry>
        </mxCell>
        <mxCell id="Z7ct0C7aWbF0iMJiXNYh-30" value="" style="endArrow=none;html=1;rounded=0;exitX=0;exitY=0.5;exitDx=0;exitDy=0;entryX=1;entryY=0.5;entryDx=0;entryDy=0;" edge="1" parent="1" source="Z7ct0C7aWbF0iMJiXNYh-4" target="Z7ct0C7aWbF0iMJiXNYh-6">
          <mxGeometry width="50" height="50" relative="1" as="geometry">
            <mxPoint x="497" y="232" as="sourcePoint" />
            <mxPoint x="387" y="232" as="targetPoint" />
            <Array as="points" />
          </mxGeometry>
        </mxCell>
        <mxCell id="Z7ct0C7aWbF0iMJiXNYh-41" value="" style="ellipse;html=1;shape=endState;fillColor=#FF0000;strokeColor=#ff0000;" vertex="1" parent="1">
          <mxGeometry x="346" y="176" width="16" height="16" as="geometry" />
        </mxCell>
        <mxCell id="Z7ct0C7aWbF0iMJiXNYh-42" value="" style="ellipse;html=1;shape=endState;fillColor=#FF0000;strokeColor=#ff0000;" vertex="1" parent="1">
          <mxGeometry x="367" y="152" width="16" height="16" as="geometry" />
        </mxCell>
        <mxCell id="Z7ct0C7aWbF0iMJiXNYh-43" value="" style="ellipse;html=1;shape=endState;fillColor=#FF0000;strokeColor=#ff0000;" vertex="1" parent="1">
          <mxGeometry x="378" y="152" width="16" height="16" as="geometry" />
        </mxCell>
        <mxCell id="Z7ct0C7aWbF0iMJiXNYh-44" value="" style="ellipse;html=1;shape=endState;fillColor=#FF0000;strokeColor=#ff0000;" vertex="1" parent="1">
          <mxGeometry x="387" y="152" width="16" height="16" as="geometry" />
        </mxCell>
        <mxCell id="Z7ct0C7aWbF0iMJiXNYh-45" value="" style="ellipse;html=1;shape=endState;fillColor=#FF0000;strokeColor=#ff0000;" vertex="1" parent="1">
          <mxGeometry x="407" y="152" width="16" height="16" as="geometry" />
        </mxCell>
        <mxCell id="Z7ct0C7aWbF0iMJiXNYh-46" value="" style="ellipse;html=1;shape=endState;fillColor=#FF0000;strokeColor=#ff0000;" vertex="1" parent="1">
          <mxGeometry x="418" y="152" width="16" height="16" as="geometry" />
        </mxCell>
        <mxCell id="Z7ct0C7aWbF0iMJiXNYh-47" value="" style="ellipse;html=1;shape=endState;fillColor=#FF0000;strokeColor=#ff0000;" vertex="1" parent="1">
          <mxGeometry x="427" y="152" width="16" height="16" as="geometry" />
        </mxCell>
        <mxCell id="Z7ct0C7aWbF0iMJiXNYh-51" value="" style="ellipse;html=1;shape=endState;fillColor=#FF0000;strokeColor=#ff0000;" vertex="1" parent="1">
          <mxGeometry x="443" y="176" width="16" height="16" as="geometry" />
        </mxCell>
        <mxCell id="Z7ct0C7aWbF0iMJiXNYh-52" value="" style="ellipse;html=1;shape=endState;fillColor=#FF0000;strokeColor=#ff0000;" vertex="1" parent="1">
          <mxGeometry x="378" y="200" width="16" height="16" as="geometry" />
        </mxCell>
        <mxCell id="Z7ct0C7aWbF0iMJiXNYh-53" value="" style="ellipse;html=1;shape=endState;fillColor=#FF0000;strokeColor=#ff0000;" vertex="1" parent="1">
          <mxGeometry x="417" y="200" width="16" height="16" as="geometry" />
        </mxCell>
        <mxCell id="Z7ct0C7aWbF0iMJiXNYh-56" value="" style="endArrow=none;html=1;rounded=0;exitX=0;exitY=0.5;exitDx=0;exitDy=0;entryX=1;entryY=0.5;entryDx=0;entryDy=0;" edge="1" parent="1" source="Z7ct0C7aWbF0iMJiXNYh-53" target="Z7ct0C7aWbF0iMJiXNYh-52">
          <mxGeometry width="50" height="50" relative="1" as="geometry">
            <mxPoint x="517" y="234" as="sourcePoint" />
            <mxPoint x="407" y="234" as="targetPoint" />
            <Array as="points">
              <mxPoint x="404" y="208" />
            </Array>
          </mxGeometry>
        </mxCell>
        <mxCell id="Z7ct0C7aWbF0iMJiXNYh-57" value="" style="endArrow=none;html=1;rounded=0;exitX=0;exitY=1;exitDx=0;exitDy=0;entryX=1;entryY=0;entryDx=0;entryDy=0;" edge="1" parent="1" source="Z7ct0C7aWbF0iMJiXNYh-42" target="Z7ct0C7aWbF0iMJiXNYh-41">
          <mxGeometry width="50" height="50" relative="1" as="geometry">
            <mxPoint x="422" y="203" as="sourcePoint" />
            <mxPoint x="399" y="203" as="targetPoint" />
            <Array as="points" />
          </mxGeometry>
        </mxCell>
        <mxCell id="Z7ct0C7aWbF0iMJiXNYh-58" value="" style="endArrow=none;html=1;rounded=0;exitX=1;exitY=1;exitDx=0;exitDy=0;entryX=0.324;entryY=-0.034;entryDx=0;entryDy=0;entryPerimeter=0;" edge="1" parent="1" source="Z7ct0C7aWbF0iMJiXNYh-47" target="Z7ct0C7aWbF0iMJiXNYh-51">
          <mxGeometry width="50" height="50" relative="1" as="geometry">
            <mxPoint x="370" y="163" as="sourcePoint" />
            <mxPoint x="361" y="175" as="targetPoint" />
            <Array as="points" />
          </mxGeometry>
        </mxCell>
        <mxCell id="Z7ct0C7aWbF0iMJiXNYh-59" value="" style="ellipse;html=1;shape=endState;fillColor=#FF0000;strokeColor=#ff0000;rotation=-105;" vertex="1" parent="1">
          <mxGeometry x="396.99795897113273" y="181.99795897113268" width="16" height="16" as="geometry" />
        </mxCell>
        <mxCell id="Z7ct0C7aWbF0iMJiXNYh-61" value="" style="endArrow=none;html=1;rounded=0;exitX=0.5;exitY=1;exitDx=0;exitDy=0;" edge="1" parent="1" source="Z7ct0C7aWbF0iMJiXNYh-45">
          <mxGeometry width="50" height="50" relative="1" as="geometry">
            <mxPoint x="408" y="166" as="sourcePoint" />
            <mxPoint x="406" y="181" as="targetPoint" />
            <Array as="points" />
          </mxGeometry>
        </mxCell>
        <mxCell id="Z7ct0C7aWbF0iMJiXNYh-64" value="" style="endArrow=none;html=1;rounded=0;exitX=0.5;exitY=1;exitDx=0;exitDy=0;entryX=0.987;entryY=0.678;entryDx=0;entryDy=0;entryPerimeter=0;" edge="1" parent="1" source="Z7ct0C7aWbF0iMJiXNYh-44" target="Z7ct0C7aWbF0iMJiXNYh-59">
          <mxGeometry width="50" height="50" relative="1" as="geometry">
            <mxPoint x="413" y="172" as="sourcePoint" />
            <mxPoint x="404" y="185" as="targetPoint" />
            <Array as="points" />
          </mxGeometry>
        </mxCell>
        <mxCell id="Z7ct0C7aWbF0iMJiXNYh-72" value="" style="endArrow=none;html=1;rounded=0;exitX=1;exitY=0;exitDx=0;exitDy=0;entryX=0;entryY=0.5;entryDx=0;entryDy=0;" edge="1" parent="1" source="Z7ct0C7aWbF0iMJiXNYh-111" target="Z7ct0C7aWbF0iMJiXNYh-8">
          <mxGeometry width="50" height="50" relative="1" as="geometry">
            <mxPoint x="269.0705523608201" y="226.72740661031253" as="sourcePoint" />
            <mxPoint x="343" y="302" as="targetPoint" />
            <Array as="points" />
          </mxGeometry>
        </mxCell>
        <mxCell id="Z7ct0C7aWbF0iMJiXNYh-99" value="" style="endArrow=none;html=1;rounded=0;exitX=0.5;exitY=1;exitDx=0;exitDy=0;entryX=0.5;entryY=0;entryDx=0;entryDy=0;" edge="1" parent="1" source="Z7ct0C7aWbF0iMJiXNYh-12" target="Z7ct0C7aWbF0iMJiXNYh-15">
          <mxGeometry width="50" height="50" relative="1" as="geometry">
            <mxPoint x="532" y="341" as="sourcePoint" />
            <mxPoint x="524" y="357" as="targetPoint" />
            <Array as="points" />
          </mxGeometry>
        </mxCell>
        <mxCell id="Z7ct0C7aWbF0iMJiXNYh-101" value="" style="endArrow=none;html=1;rounded=0;exitX=0;exitY=0.5;exitDx=0;exitDy=0;entryX=1;entryY=0.5;entryDx=0;entryDy=0;" edge="1" parent="1" source="Z7ct0C7aWbF0iMJiXNYh-13" target="Z7ct0C7aWbF0iMJiXNYh-12">
          <mxGeometry width="50" height="50" relative="1" as="geometry">
            <mxPoint x="546" y="332" as="sourcePoint" />
            <mxPoint x="530" y="348" as="targetPoint" />
            <Array as="points" />
          </mxGeometry>
        </mxCell>
        <mxCell id="Z7ct0C7aWbF0iMJiXNYh-111" value="" style="ellipse;html=1;shape=endState;fillColor=#FF0000;strokeColor=#ff0000;" vertex="1" parent="1">
          <mxGeometry x="291" y="272" width="16" height="16" as="geometry" />
        </mxCell>
        <mxCell id="Z7ct0C7aWbF0iMJiXNYh-112" value="" style="ellipse;html=1;shape=endState;fillColor=#FF0000;strokeColor=#ff0000;" vertex="1" parent="1">
          <mxGeometry x="314" y="327" width="16" height="16" as="geometry" />
        </mxCell>
        <mxCell id="Z7ct0C7aWbF0iMJiXNYh-113" value="" style="ellipse;html=1;shape=endState;fillColor=#FF0000;strokeColor=#ff0000;" vertex="1" parent="1">
          <mxGeometry x="328" y="325" width="16" height="16" as="geometry" />
        </mxCell>
        <mxCell id="Z7ct0C7aWbF0iMJiXNYh-114" value="" style="ellipse;html=1;shape=endState;fillColor=#FF0000;strokeColor=#ff0000;" vertex="1" parent="1">
          <mxGeometry x="310" y="346" width="16" height="16" as="geometry" />
        </mxCell>
        <mxCell id="Z7ct0C7aWbF0iMJiXNYh-115" value="" style="ellipse;html=1;shape=endState;fillColor=#FF0000;strokeColor=#ff0000;" vertex="1" parent="1">
          <mxGeometry x="321" y="341" width="16" height="16" as="geometry" />
        </mxCell>
        <mxCell id="Z7ct0C7aWbF0iMJiXNYh-116" value="" style="endArrow=none;html=1;rounded=0;exitX=0.5;exitY=1;exitDx=0;exitDy=0;entryX=0.5;entryY=0;entryDx=0;entryDy=0;" edge="1" parent="1" source="Z7ct0C7aWbF0iMJiXNYh-112" target="Z7ct0C7aWbF0iMJiXNYh-114">
          <mxGeometry width="50" height="50" relative="1" as="geometry">
            <mxPoint x="349" y="-65" as="sourcePoint" />
            <mxPoint x="381" y="-65" as="targetPoint" />
            <Array as="points" />
          </mxGeometry>
        </mxCell>
        <mxCell id="Z7ct0C7aWbF0iMJiXNYh-117" value="" style="endArrow=none;html=1;rounded=0;entryX=0.5;entryY=1;entryDx=0;entryDy=0;exitX=0;exitY=0;exitDx=0;exitDy=0;" edge="1" parent="1" target="Z7ct0C7aWbF0iMJiXNYh-111" source="Z7ct0C7aWbF0iMJiXNYh-112">
          <mxGeometry width="50" height="50" relative="1" as="geometry">
            <mxPoint x="283" y="327" as="sourcePoint" />
            <mxPoint x="332" y="141" as="targetPoint" />
            <Array as="points" />
          </mxGeometry>
        </mxCell>
        <mxCell id="Z7ct0C7aWbF0iMJiXNYh-118" value="" style="endArrow=none;html=1;rounded=0;exitX=0.5;exitY=1;exitDx=0;exitDy=0;entryX=0.5;entryY=0;entryDx=0;entryDy=0;" edge="1" parent="1" source="Z7ct0C7aWbF0iMJiXNYh-112" target="Z7ct0C7aWbF0iMJiXNYh-115">
          <mxGeometry width="50" height="50" relative="1" as="geometry">
            <mxPoint x="346" y="338" as="sourcePoint" />
            <mxPoint x="338" y="354" as="targetPoint" />
            <Array as="points" />
          </mxGeometry>
        </mxCell>
        <mxCell id="Z7ct0C7aWbF0iMJiXNYh-119" value="" style="endArrow=none;html=1;rounded=0;exitX=0;exitY=0.5;exitDx=0;exitDy=0;entryX=1;entryY=0.5;entryDx=0;entryDy=0;" edge="1" parent="1" source="Z7ct0C7aWbF0iMJiXNYh-113" target="Z7ct0C7aWbF0iMJiXNYh-112">
          <mxGeometry width="50" height="50" relative="1" as="geometry">
            <mxPoint x="360" y="329" as="sourcePoint" />
            <mxPoint x="344" y="345" as="targetPoint" />
            <Array as="points" />
          </mxGeometry>
        </mxCell>
      </root>
    </mxGraphModel>
  </diagram>
</mxfile>
